<?xml version="1.0" encoding="utf-8"?>
<!-- Generator: Adobe Illustrator 21.1.0, SVG Export Plug-In . SVG Version: 6.00 Build 0)  -->
<svg version="1.1" id="Calque_1" xmlns="http://www.w3.org/2000/svg" xmlns:xlink="http://www.w3.org/1999/xlink" x="0px" y="0px"
	 viewBox="0 0 1427.4 33" style="enable-background:new 0 0 1427.4 33;" xml:space="preserve">
<style type="text/css">
	.st0{fill:#1E1E1C;}
</style>
<g>
	<path class="st0" d="M1370.2,15c3.1-0.1,5.9,0.3,4.7,0.4c6.4-0.4,6.5,0.1,7.4-0.7c4.1-0.4,8.5,0.1,3.8,0.4l11.8-0.4l-7.1-0.1
		c1.9-0.6,11.3,0.2,13.6-0.5l-12.8,0.1l0.6-0.2c-2.9,0.2-8.6,0.1-10.6,0c0.3-0.1,0.1-0.3,2.4-0.3c-15.5,0-4.2,1.1-17,1.3
		C1367.8,15,1368.8,15,1370.2,15z"/>
	<path class="st0" d="M1357,13.5l-5.4,0.8l-9.1-0.2c-0.1,0.3-6.7,0.5-2.2,0.7c0.9,0,2.6-0.1,4-0.1c-1,0.6-12,0.3-9.4,0.9
		c7.2-0.2,8.3,0,12.7-0.5c6.6,0.1,11.4,0.2,14.4,0.4c2-0.1,2.2-0.4,4.7-0.5c-0.5,0-1.1,0-1.7,0l-0.3-0.9c-2.1,0.2-4,0.1-6.3,0.1
		l10.6-1c-3.4-0.8-13.8-0.3-18-0.7C1356.2,13.3,1347,13,1357,13.5z"/>
	<path class="st0" d="M1366.7,15c0.1,0,0.2,0,0.3,0C1366.9,15,1366.8,15,1366.7,15z"/>
	<path class="st0" d="M574.4,19.9c-2.3,0-2.9,0.2-3.2,0.3l25.4,0c-0.8-0.2-8.1-0.5-3.2-0.6c-2.2-0.2-8.8,0-9.8,0.3l1.8-0.3
		c-5.8,0.4-9.8-0.4-6-0.7l-0.5,0l-16.2,1.7C568.6,20.6,567.3,20,574.4,19.9z"/>
	<path class="st0" d="M53.1,19.1c3.3-0.1,3.7-0.2,3.3-0.2C55.2,18.9,54.1,19,53.1,19.1z"/>
	<path class="st0" d="M558.9,20.9l-5.1,0.5C555.9,21.3,557.7,21.1,558.9,20.9z"/>
	<path class="st0" d="M594.1,12.9C594.1,12.9,594.1,12.9,594.1,12.9l-2.3,0.2c0,0,0,0,0.1,0C592.6,13,593.4,13,594.1,12.9z"/>
	<path class="st0" d="M443.7,22.9c-0.5,0-1,0-1.7,0C442.7,23,443.2,22.9,443.7,22.9z"/>
	<path class="st0" d="M662.8,9.9l-11.3,0.5c1.5-0.2-3.9-0.2-1.6-0.4c-0.9,0-4.9,0.1-3.8,0.3l2.3,0c-6,0.7-2.3,1-12.2,1.5
		c6.1,0.4,8.8,0,12.1-0.3c1.1,0,2-0.1,3-0.1l9.4-1L662.8,9.9z"/>
	<path class="st0" d="M210.3,15.1l0.1-0.1C210.4,15.1,210.3,15.1,210.3,15.1z"/>
	<path class="st0" d="M211,14.8l-0.5,0.2C211.1,15,213.4,14.8,211,14.8z"/>
	<path class="st0" d="M560.8,20.5c-0.2,0.1-0.8,0.3-1.9,0.5l3.8-0.4C562.2,20.5,561.5,20.5,560.8,20.5z"/>
	<path class="st0" d="M569.4,19l9.5-0.1l3.5-0.4C578.8,18.6,574.5,18.7,569.4,19z"/>
	<path class="st0" d="M458.7,23.3c-19.7,0.1,4.8-0.8-4.2-1c-5.5,0.1-7.4,0.5-10.8,0.6c15.6-0.3-2.1,1.3,13.6,1.1
		c-2.2,0.7-11.4,0.8-16.7,0.6c-6.1-0.7,5.3-0.5,6.7-1.2c-6.3,0.1-5.2,0.2-7.9,0.6c-9.9-0.2-20.5,0.8-26.5-0.1
		c-7.2,0.2-6.7,0.5-10.8,0.8c-0.8,0.7,10.7,0.4,13.3,1c-0.6-0.1-1.6-0.2-1.3-0.3l6.2,0.2c-5.9-0.3,0.8-0.7,4-0.8
		c2.3,0,6.8,0,6.2,0.2l-3.5,0.2c4.5,0.2,9.9-0.5,14.6-0.1c0.2,0.2-1.5,0.2-1.8,0.3c5.3-0.5,10.4-0.5,18.2-0.8l-4.5,0.7
		c6.3-0.8,20.4-0.6,30.3-0.2c-1.1-0.1-3.1-0.2-1.9-0.3c5.8-0.2,10.1,0.3,7.5,0.7c5.6-0.6,21.5,0.5,29.2-0.3l35.3-3.7
		c-1.3,0.1-2.7,0.2-4.2,0.2c-3.2-0.6-4.9-0.6,0.7-1.2c-5.5,0.3-3.4,0.8-11.7,0.9c3.3-0.3,4.1-1-3.9-1.1c-19.9,0.6-33,2.4-51.6,3.4
		c-0.7-0.5-15.3-0.4-22.3-0.5c2.7-0.5,8-0.7,13.4-0.8c-3.4,0-9.3,0-13.7-0.1L458.7,23.3z"/>
	<path class="st0" d="M504.9,21.7c-0.5,0-1-0.1-1.5-0.1C503.6,21.6,504.1,21.7,504.9,21.7z"/>
	<path class="st0" d="M475.9,22.4C475.9,22.4,475.9,22.4,475.9,22.4c-0.5,0-1.1,0-1.7,0C474.8,22.4,475.5,22.4,475.9,22.4z"/>
	<path class="st0" d="M556.1,19.4c1.2-0.1,2.1-0.2,3.2-0.3c-0.7,0-1.6,0.1-2.5,0.1C556,19.3,555.6,19.3,556.1,19.4z"/>
	<path class="st0" d="M560.1,20.2l-0.6,0.2c0.5,0,0.9,0,1.3,0C560.9,20.4,560.8,20.3,560.1,20.2z"/>
	<path class="st0" d="M383.5,18.9l-1.9,0.1C382.7,19,383.2,19,383.5,18.9z"/>
	<path class="st0" d="M436.8,22.5c6.8,0,0.8-0.7,10.5-0.7l-2.8,0c7-0.3,19.2-0.2,27.4-0.2c-0.9,0.3,5,0.4,4,0.8
		c5.6-0.1,11.2-0.2,14.1-0.7c3.5,0.2,8.8-0.3,13.3-0.1c-1.9-0.3,6.3-0.9-4.5-0.6c0.9,0,0.3-0.1,1.2-0.1c-7-0.4-9.8,0.3-15.8,0.3
		c-3.6-0.3,5.9-0.4,2.5-0.5c-7.5,0.3-23.5-0.3-23,0.7c-5.5,0.1-6.2-0.2-7.8-0.3c-8.6,1.1-32-0.5-32,0.9c3.2-0.1,8.3,0,12.9-0.3
		L436.8,22.5z"/>
	<path class="st0" d="M544.6,19.5c-0.4,0-1,0-1.3,0C543.7,19.4,544.2,19.5,544.6,19.5z"/>
	<path class="st0" d="M631,23.5l-2.9,0.9c-16.3,0.2-22.2,0-36.5,0c-1.1-0.1,0.6-0.2,1.5-0.2c-10,0.1-25-0.1-32.3,0.3
		c-3.2,0-11.6-0.3-8.4-0.6c-1.6,0.1-3.3,0.2-5.1,0.1c-0.5-0.3,4-0.1,4.1-0.4c-1.4,0-2-0.1-2.3,0c2.4-0.3-2.5-1.1,8.6-1.1
		c4.3,0.8-7.7,0.1-5.2,0.9c3.7,0,3.3-0.3,3.6-0.4c4.7,0,4.6,0.2,4.3,0.4c1.8-0.3,7.7,0.1,10.2-0.3c9.1-0.1-0.5,0.6,5.5,0.6l3.4-0.8
		l9.9,0.2c14.3-0.3-2.1-1.5,14.3-1.9c-2.2,0.4,4.4,1.2,12.1,1.4c-4.6,0-13,0.6-18.9,0.3c8.3,0.7-11.4,0.1-7.1,0.8
		c4.1-0.4,11-0.4,16.3-0.2l-1.8,0.1c5.7,0.1,10-0.8,17.8-0.5c3.9,0,3.2,0.2,2.5,0.4C628.1,23.4,631,23.3,631,23.5z M622.6,23.6
		l-5.2-0.1C618.6,23.7,620.5,23.7,622.6,23.6z"/>
	<path class="st0" d="M1284.1,13.7c0.5,0,1.1,0,1.6,0.1C1285.4,13.7,1284.8,13.7,1284.1,13.7z"/>
	<path class="st0" d="M821.6,13.3l3,0C823.4,13.3,822.5,13.3,821.6,13.3z"/>
	<path class="st0" d="M889.3,10.5l4.4-0.2C892,10.3,890.6,10.4,889.3,10.5z"/>
	<path class="st0" d="M1248.1,13.6l-0.1,0c-0.2,0-0.4,0-0.7,0L1248.1,13.6z"/>
	<path class="st0" d="M1025.2,12.5c0.7,0.1,1.4,0.1,2.5,0.2C1027.6,12.6,1026.6,12.6,1025.2,12.5z"/>
	<path class="st0" d="M888.5,10.6c0.1,0,0.2,0,0.3,0c0.2,0,0.4,0,0.5-0.1L888.5,10.6z"/>
	<path class="st0" d="M791.7,10.9c-0.6,0-1.2,0-1.9,0.1C790.7,10.9,791.3,10.9,791.7,10.9z"/>
	<path class="st0" d="M796,13.3c-0.7,0-1.4,0-1.9,0.1L796,13.3z"/>
	<path class="st0" d="M691.6,11.6l-4.1,0.1C689.6,11.7,690.7,11.7,691.6,11.6z"/>
	<path class="st0" d="M785.2,12.7c-0.2,0-0.5,0.1-0.6,0.1C785.2,12.8,785.4,12.7,785.2,12.7z"/>
	<path class="st0" d="M1310,16.2c-0.1,0-0.2,0-0.2,0l-0.1,0.1L1310,16.2z"/>
	<path class="st0" d="M1319.8,15c1.2,0,2.4,0,3.6-0.1C1322.1,14.9,1320.8,14.9,1319.8,15z"/>
	<path class="st0" d="M1084.3,13.9c1.1,0.1,3.6,0.3,2.4,0.4C1088.7,14.1,1088.6,13.7,1084.3,13.9z"/>
	<path class="st0" d="M1290.2,21.5c0.6-0.1,1.5-0.2,2.3-0.3C1290.9,21.3,1289.6,21.4,1290.2,21.5z"/>
	<path class="st0" d="M1292.4,21.2c0.7-0.1,1.5-0.1,2.2-0.2C1293.8,21.1,1293.1,21.1,1292.4,21.2z"/>
	<path class="st0" d="M1056.9,20.9c-0.3-0.1-0.7-0.1-1.2-0.1C1055.8,20.9,1056.2,20.9,1056.9,20.9z"/>
	<path class="st0" d="M1326.3,15c0.6-0.2,16.2-0.6,3.1-0.7c0.5-0.6,8.4-0.3,11.9-0.4c-2.5-0.1,1.3-0.4,0.5-0.6
		c-1.7,0.1-3.8,0.3-6.6,0.2c-1.3-0.3,3-0.5,6.4-0.4c-4.2-0.3,5.3-0.5-0.6-0.8c-12.6,0.2-21.5,0.5-30.4,1.4
		c7.2-0.2,15.2-0.3,21.1-0.1l-2.5,0.5c-6.7-0.5-10.8-0.1-17.3-0.2l14.7,0.3c6.9,0.5,2.3,0.6-3.2,0.7
		C1324.8,14.9,1326,14.9,1326.3,15z"/>
	<path class="st0" d="M1316.4,19.8l0.2,0c0.2,0,0.5,0,0.6-0.1L1316.4,19.8z"/>
	<path class="st0" d="M692.4,22.6l-1.3,0.2C692.2,22.7,692.5,22.7,692.4,22.6z"/>
	<path class="st0" d="M1307.6,17.2L1307.6,17.2C1307.5,17.2,1307.5,17.2,1307.6,17.2z"/>
	<path class="st0" d="M723.8,22.7c0,0-0.1,0-0.2,0C723.8,22.7,723.8,22.7,723.8,22.7z"/>
	<path class="st0" d="M732.2,10.9c-0.1,0-0.1,0-0.2-0.1C731.3,10.9,731.7,10.9,732.2,10.9z"/>
	<path class="st0" d="M723.8,22.6C723.8,22.6,723.9,22.6,723.8,22.6C723.8,22.6,723.9,22.6,723.8,22.6z"/>
	<path class="st0" d="M876.8,20.6c0,0-0.5-0.1-1.2-0.2C875.2,20.5,875.5,20.5,876.8,20.6z"/>
	<path class="st0" d="M846.6,19.8c-0.2,0-0.3,0-0.6-0.1L846.6,19.8z"/>
	<path class="st0" d="M1077.1,11.4c-1.5,0-2.6,0-3.6,0C1074.6,11.5,1075.8,11.5,1077.1,11.4z"/>
	<path class="st0" d="M723.7,22.7c-0.3,0.1-0.8,0.1-1.5,0.2C723,22.8,723.4,22.8,723.7,22.7z"/>
	<path class="st0" d="M922.8,17.9c-0.3,0-0.6,0-0.9,0.1c0.2,0,0.4,0,0.6,0L922.8,17.9z"/>
	<path class="st0" d="M938.6,18.3c-0.5,0.1-0.8,0.1-1.1,0.2c5.6-0.2,16,0,17.2-0.6c-1.9,0-11.8-0.3-10.1-0.7
		c-3.9,0.1-9.7-0.3-11.8-0.2c6.4,0.3,0.7,0.5-3.6,0.7c-4-0.2,0.7-0.5-2.7-0.6l-9.1,0.1l8,0.1l-2.4,0.6c0.3,0,0.5,0,0.8-0.1
		C937.1,17.6,924.8,18.6,938.6,18.3z"/>
	<path class="st0" d="M937.5,18.5c-0.8,0-1.6,0.1-2.2,0.1C936.6,18.6,937.1,18.5,937.5,18.5z"/>
	<path class="st0" d="M992.5,19.4c0.7,0,1.4,0,2.4-0.1C994.5,19.3,993.4,19.3,992.5,19.4z"/>
	<path class="st0" d="M589.2,18.6c0.2,0.2,8.1,0.5,7.9,0.1c-2.3,0-4.7-0.1-7-0.1L589.2,18.6z"/>
	<path class="st0" d="M1142.5,16.9c-0.9,0-1.8,0-2.6,0c-0.2,0-0.4,0-0.5,0.1C1139.9,17,1141.6,16.9,1142.5,16.9z"/>
	<path class="st0" d="M947,17c-1.4,0.1-2.1,0.1-2.4,0.2C945.5,17.2,946.3,17.1,947,17z"/>
	<path class="st0" d="M1142.9,17.9c1.1,0.1,2.8,0.3,3,0.5c2.3,0,3.9-0.2,6.2-0.3C1149.5,18.1,1146.5,18.1,1142.9,17.9z"/>
	<path class="st0" d="M1152.3,18.1c-0.1,0-0.1,0-0.2,0C1152.2,18.1,1152.3,18.1,1152.3,18.1z"/>
	<path class="st0" d="M584.5,18.4c-0.7,0-1.4,0.1-2.1,0.1l1.1-0.1c-1.8,0-3.6-0.1-5.4-0.1c-0.7,0-1.4,0.1-2.2,0.1
		c0.3,0,0.6-0.1,0.8-0.1c-0.6,0-1.2,0-1.7,0c-4.3,0.4-15,0.8-18.1,1c-4.1,0.2-9.1,0.3-12.2,0.3c2.9,0,6.8-0.1,5.6-0.3
		c-5.9-0.3-8.8-1-19-0.4l6,0l-13.4,1c-4.7-0.4,6.7-0.5,8.6-0.8c-10.4,0.5-19.1-0.8-24,0c-0.7-0.5-1.8-1.3-8.7-1.3
		c4.9,0.6-4.1,0.4-0.1,1c-2.4,0.3-7.6-0.2-8,0.2l0.6-0.2c-11.7-0.8-15.5,0.4-20.5,0.8c-14,0.2-20.4-0.1-31.9,0
		c-0.4-0.3-3.6-1.2-8.1-1.2c-2.1,0.4-12.5,0.6-13.5,1.2c8.2,0.2,6.7-0.5,11.6-0.6c4.1,0.6,0.4,0.6,5.9,0.9
		c-4.5-0.2-20.3,0.3-25.3-0.2l1.7-0.1c-7.9-0.3-9.4-1.7-22.5-0.9l-6.3,0.3c0.3-0.1,0.3-0.1,0.5-0.2c-10.2-0.1-7.4-0.7-18.8-0.2
		c0.9,0,0.3-0.1,1.2-0.1c-6.4-0.3-12.9,0.3-17.8,0.5c-3-0.5,0.7-0.5,2.5-0.8c-11.3-0.2-23.6,0.6-30.6,1.2l-7.3-0.3
		c4.3-0.2,9.6-0.7,8.3-1c-4,0.1-3.2,0.3-8.9,0.2c1-0.3,3.4-0.6,6-1c-11.8-0.5-2.6,1.1-10.9,0.1c-3.7,0-5.8,0.4-6.2,0.8l-6.7-0.5
		c-0.7,0.5-9,0.5-14.4,0.6c-0.7,0.2,4.4,0.5,6.4,0.3c-0.4,0.4-6.2,0.5-9.9,0.5c-1.4-1-24.3,0.1-19.9-1c-16.6,0.3-40,0.4-51,0.8
		c-3.6-0.3-11-0.3-6.6-0.7c-13.4,0-20.3,1-33.6,0.7c-1.1-0.1,6,0,5.5-0.3c-8.7,0.4-15.8-0.4-29.3-0.2c2.3,0,2.9-0.2,3.2-0.3
		c0.2,0.2-5.5,0.3-9,0.5c-2-0.1,2.6-0.1,1.5-0.2c-26-0.5-45.9,0.9-71.8,0.8c7.4,0,10.2-0.6,10.3-0.9l-7.2,0
		c-2.8,0.3-8.2,0.3-12.8,0.6c-0.6-0.1-2.8-0.3-0.5-0.4c-14.3-0.7-22.4,1.2-39.9,0.8L37.2,18L32,17.5l9.3-0.6
		c-5.6-0.4-10.4,0.5-11.1,0c1.2-0.1,4-0.1,4.1-0.4c-5.4-0.2-5.8,0.2-9.8,0.3c10.6-1,31.4-1,42.6-1.2c1.8-0.1-1.5,0.2-1.8,0.3
		c4.6,0,7.3,0.3,13.1,0.1c3.6-0.4-2.7-0.3-5.6-0.4c0.4-0.4,1.8-0.3,5-0.4c0.7,0.5,17.3,0.2,21.4,0.8c16.9-0.2-2.7-1.3,13.8-1.1
		l4.9,0.6c9.6-0.4,21.9-0.8,32.7-0.7l-2.3,0c-1.5,0.2,1,0.4,2.1,0.5c8.2,0.2,15.5-0.4,20.5,0.1c9.3-0.6,24.9-1,35.5-1.3
		c2.9,0.7-13.9,0.6-18.3,1.1l9.7,0c-6,0-8.4,0.3-12,0.7c8.5,0.1,11.3-0.5,19.4-0.7c-0.6,0.2,0.4,0.3,4.2,0.3l1.1-0.5
		c0.1,0,0.5,0.1,1.6,0.1l14.3-0.3c-3-0.2-3.2-0.6-6.9-0.6c1.3,0.3-1.8,0.3-5.5,0.3c3.2-0.3-3.6-0.3-3.5-0.5c7.4,0,16.6-0.1,21.4-0.2
		l1.6,0.5c7.1,0.1,14.6-0.1,19.4,0l-1.5,0.2c8.5,0.1,16.9-0.2,24.4,0.3c7.6-0.5,17.1-0.9,23.3-1.5c3.3-0.6,22.2,0.7,30.8-0.1
		c0.6,0.1-5.9,0.4-8.8,0.7c5.7,0.1,10.2-0.6,12,0c-12.8-0.2,0.7,0.5-5.1,0.7c6,0,12.3-0.1,15.2-0.3c-9.7,0,3.4-0.8-6.4-0.6
		c7.6-0.5,17.9-0.7,27-0.5c-0.1,0.3,1,0.4,4.4,0.5l2.7-0.4c4.2,0.1-8.2,0.5,0.3,0.6c8.8-0.7,26.4,0.4,30.2-0.8
		c6.7,0.5-12.7,0.5-2.6,1.1c-5.9,0.4-13.9-0.1-15.9,0.5c5.7-0.2,2.1,0.5,5.8,0.5l6.4-0.4l-1.4,0c10.7-0.6,27.7-0.3,41.5-0.4
		c11.6-0.6,19.6-1.5,33.5-1.4c-4.1,0.4,11.6,0.3,2.8,1c6.4,0.3,12.8-0.1,12.9-0.3c-5.7-0.1-2-0.1-6.8-0.2c3.2-0.3,10.7-0.3,13.7-0.1
		c-1.4,0-0.9,0-1.2,0.1c6.8,0.2,3.2-0.3,8.1-0.5c1.6,0.4,10.8,0.1,15.3,0.4l6.5-0.6c-3.6,0.4,6.2,0.2,7.2,0.5
		c4.6-0.3,8.5-0.8,15.6-0.7c-2.9,0.2,6.5,0.3,6.6,0.7c12.1,0.4,20.1-1.2,31.5-0.6c-0.4,0.1-2.7,0.4,0.7,0.5
		c2.6-0.1,7.3-0.1,10.1-0.1l-0.1,0c0.1,0,0.1,0,0.1,0c1.4,0,2.3-0.1,2.3-0.2c4.8-0.4,7.3-0.8,16.9-1.2c-0.7-0.5-8.7-0.3-12.2-0.1
		l-3,0.5c-2.9-0.7-8.6,0.1-10.8-0.1c5.7-0.9,22.2-0.7,32-1.2c-6-0.7-19.1-0.8-30.5-0.7l5,0.3l-6,0l5.8,0.5c-5.7-0.1-10.6,0-15.7,0
		c6,0,8.3,0.7,4.9,0.6c-6.7-0.5-7,0.3-12.1,0.3c2.8,0,6.5,0.1,4.2,0.3c-10.1-0.6-12.8-0.2-21.9-0.8c1.1,0.8-11.4,0.1-12.8,0.7
		l4.2,0.1l-9,0.5c-8.3-0.7,7.4-0.7-5.3-1.1c-11.7-0.1-11.4,0.8-20.5,0.8c3-0.5,10.3-0.9,17.7-0.9l-4.5-0.2
		c2.4-0.3,12.6-0.2,17.7-0.2c-8.4,0.6,4,0.2,7.8,0.6c0.7-0.5-4.7-0.4,1.7-0.8c-6,0-6.9,0-14.5-0.1c16.5,0.2,14.8-1.6,29.2-1.2
		c-6.6,0.2,2.3,0.7,3.1,0.9c3.1-0.1,9.5-0.2,12.1-0.3l-2.4-0.7c8.4-0.3,11.3,1.1,21,0.4c1.3-0.4-8.5-0.1-6.8-0.2
		c13.2-0.4,18,0.7,29.8,1.2c0.7-0.2,0.5-0.6,4.6-1c-1.3,0.4,1.8,0.6-2.9,0.9c3.9,0.2,8.6-0.1,12.1-0.3c-8.2-0.2,3.3-0.6,4.9-0.8
		c4.2,0.1-1.3,0.4-3.9,0.5c3.4,0.1,7.4,0.7,9.4,0.1c0.1,0.4-9.5,1.1-15.8,1.2l4.3,0.1c-2.9,0.2-3.5,0.2-7.7,0.1
		c4.1,0.3,3.7,0.7,2.8,1c-0.5-0.1,0.3-0.1-0.2-0.2c-3.4-0.1-6,0-5.2,0.2c-3.1,0.6,4.7,0.4,7,0.6c1.7,0,3.5-0.1,5.2-0.1l17.7-1.8
		c7.5-0.2,10.9,0.2,16.6,0.5l1.6-0.5c6.6,0.1,12.8,0.2,8.6,0.8c-0.2-0.2-1.1-0.1-2.5-0.1c-0.2,0.1-0.5,0.1-0.9,0.2
		c-0.1,0-0.2,0.1-0.3,0.1c7-0.2,11.4-0.3,11.8-0.3c-11.9,0.7-0.6,0.9-2.6,1.8l12.1-0.3c-7.3-0.3-0.1-0.4,2.5-0.5
		c0.7,0.5,9.7,0,13.9,0.1l-0.3,0.1c3.9,0.2,10.8,0.1,15.7,0c-0.2-0.2,6-1,9-1.4c-8.4-0.2-3.4-0.4-4.1-0.7c0.9,0,2.4,0,2.6,0
		c1.2-0.1-1.6-0.2-1.9-0.3c-8.9,0.2-18.1,0.3-21.7,1c2.7,0.3,4.7-0.3,7.7-0.1c-4.4,0.5-10.1,0.4-17.5,0.4l-2.4-0.4l-7.4,0.2
		c3.1-0.2,1.2-0.6,9-0.7c-1-0.4-7.7,0.1-12.5,0l-2.4,0.5c0.9-0.3-9.3-0.4-2-0.8l11.8-0.4l-3.3-0.4l10-0.1l-2.4,0.3
		c16.1-0.4,4.7,1.1,20.9,0.4c5.1-0.7,10.5-0.7,20.4-0.6c-7.2,0.1-0.7,0.5-3.4,0.8c7.3,0.3,9.8-0.3,13.6-0.5c1.9,0.3,3.2,0.6-3.3,0.6
		c-0.8,0.7,8.6-0.1,9.2,0.6c21.7,0,17.4-2.4,42.7-1.5l-0.9,0.3c16.1-0.4,25.4,0,40.2-0.3l11.7,0.8c-2.6,0.1-9.7,0.7-6.4,1.1
		c-5.7-0.8-11.8-0.5-17.9-0.9c-0.6,0.2,1.9,0.3,3,0.5c-3.7,0-5.6-0.4-10.5-0.2c0.2,0.2,5.6,0.4,1.6,0.4l-6.7-0.5
		c-8.9,0.2-4.4,1.1-14.9,0.9c1.9-0.4,5.9-1,10-1.1c-4.8-0.1,6.4-0.3,2-0.5c-6.9,0.6-10.2,0.1-19.4,0.5c1.1-0.1,1.4-0.2,3.6-0.3
		l-13.3-0.3c3.3,0.4-11,0.4-9.7,1c14.2,0.2,10-0.1,26.1,0.2c-4.6,0.1-10.5,0.7-13.2,1.2c-0.1,0-0.4,0-0.9,0c-2.5,0.5,0,0.7,0,1.6
		c7.4-0.7,12.3-0.1,21-0.5c1.6-0.5-5-0.7-9.4-0.5l7.7-0.3l-1.5,0.2l19.4,0.2c-3.7,0-4.9,0.3-6.9,0.6c2.5,0,5,0.2,7.6,0.3
		c-0.6-0.5-0.2-0.8,2.2-0.8c12.5,0.1,19.5,0.6,24.1,1.1c0.5,0,1,0,1.5,0C848,14,859,13.5,862.9,13c-0.2,0.5,6.4,0.3,10,0.6
		c1.9-0.6-0.6-1.4-5-1.9c-8.5,0.6-4.7,0.6-8.7,1.3l-13.6,0.5l3-0.5c-6.8-0.2-13.3,0.4-12.8-0.2c3.6-0.4,9.5-0.2,13-0.6l-4.5-0.2
		c7.9-0.6,4.1,0.6,13.6,0.2c-3.5-0.5,0.9,0,5-0.4c-3.3-0.4-16.8,0.2-14-0.8c5-0.4,16.7,1.1,23.3,0.2l-0.3,0.1
		c9.7,0.1,13.1-0.4,16.8-0.7c4.1,0.3,9.8-0.1,14.3-0.2l-0.1,0.3l6.3-0.1c-3,0.5-7.4,0-12.8,0.1l0.7,0.5c-6.3-0.6-10.4,0.3-15.3,0.7
		c7.1-0.4,19.9,0.1,21.6-0.8l4.4,0.5l2.1-0.2c3.3,0.4-0.1,1-6.4,1.1c-1.1-0.1-1.6-0.2-1.3-0.3c-2.9,0.2-5.6,0.6-12.7,0.5l3.8-0.3
		c-8.8,0-16.9,0.2-19.9,0.6c12.7,0.2,25.3,0.2,37.2,0.2c3.5-1.1,7.7-1.7,9.5-2.8c8-0.2,18.9-0.3,25.9,0l-0.6,0.2
		c3.4,0.1,6.5,0.1,9.2-0.1c3.6,0.3-2.5,0.5,0,0.7l11.5-0.3c-0.7,0.5-10.4,0.5-15,0.5c0.9,0,2.6-0.1,2.1-0.2
		c-5.3-0.2-15.3,0.6-17.6-0.1c-2.6,0.1,5.3-0.5-3.5-0.5c-5.9-0.3-7.8,0.4-8.4,0.6c-0.1,0.3,9.3,0.4,6,0.7c4.6,0,6.4-0.4,12.3-0.1
		c-4.6,0-10.7,0.6-13.2,0.2c-9,0.5-7.7,1.7-3.5,1.8c-1-0.4,16.4-0.5,4.6-1c5.3-0.5,15-0.5,21.9-0.8l-0.3,0.1l8.6-0.1
		c-1.2,0.1-3.8,0.3-3.9,0.5l11.9-0.7c-6.7,0.5,4.2,0.3,7.2,0.5c1.3-0.4,5.9-0.7,1.5-0.9c-5-0.3-2.9,0.2-7.5,0.2l6.5-0.6l0.6,0.1
		l3.9-0.5c8.8,0-3.9,1.2,7.4,0.7l-1.5-0.7c13.1,0.1,29.9,0.9,39.1,0.6c-2.5,0.4-3.7,1.1-0.2,1.4c-4-0.1-12-0.1-17.7,0
		c-1.1-0.1,7.1-0.8,13.3-0.7c-3-1.2-15.6,0.7-16.3-0.5c-15.8-0.4-11.8,1.1-25.2,0.4c-0.2,0.5-3.8,0.3-4.5,0.7c4,0.9,18,0,26.7,0.3
		c-0.9,0-2.6,0.1-2.9,0.2c6.2,0.2,8.8,0,13.2-0.2l-0.5-0.1c7.6-0.5,4.7,0.4,9.2,0.6c1.7-0.1,8,0.1,7-0.3l8.1,0.5L1035,13
		c4.6,0,5.6,0.4,9.7,0l0.2-0.5l-11.4-0.2c5.8-0.2,1.6-0.5,7.9-0.6c-7.1,0.6,5,0.3,5.7,0.8l4.6-0.3l-1.2,0.1c3.6,0.3,4.3-0.2,8.6-0.1
		c-5-0.3-8.3-0.7-14.7-0.3c4.7-0.3,13.9-0.6,16.2-0.6c4.9-0.2,8.3,0.2,12.9,0.2c-8.8,0.2,3.1,1.6-14.5,1.2c0.3-0.1,1.8-0.1,2.3,0
		c-2.3-0.7-10.6,0-14.4,0.3c1,0.4-3,0.5,3.8,0.7c-2.2-0.2,5.7-0.9,12.1-0.5l-1.1,0.8l9.4,0.1l-0.9,0c3.5,0.5,10-0.1,16.5,0.2
		c4.7-0.3,22.5-0.1,14.8-0.9c5.8,0.5,10.9-0.1,17.2-0.3l-7.9-0.3c9.3-0.6,6.6-0.2,14.1-1.2c0.8,0.2,2.4,0.4,0.9,0.7
		c12.5,0,30.4,0.3,37.7-0.4c8.8,0,10.2,1,22.6,0.6c2.6-0.1-2-0.8,6.2-0.5c0.6,0.1-7.9,0.6,1.2,0.5c6.5-0.6,15.3,0.4,23.7-0.2
		c4.5,0.2,12.2,0.1,10.6,0.6c-7.1-0.1-17.1,0-18.6,0.2c1-0.3-5-0.3,0.2-0.5c-10.7-0.4-6.9,0.3-16.5,0.1c-0.7,0.2,4.9,0.6,7,0.4
		c0,0.7-18.9,0.3-10.4,1.2c10.2,0.1,13.3-1.4,22.2-0.7c-3.6,0.4-9.1,0.1-13.7,0.8l7.3,0.3l5.3-0.5l-0.3,0.1
		c12.9,0.6,11.9-0.7,23.5-1.1c-6.7-0.5,1.5-1.2-3.5-1.5c7.7-0.1,13.4,0,13.4,0.7c-14.4,0.6-0.8,0.7-14.2,1.4c2.2,0.2-3.2,1,4.8,1.1
		c9-0.5-2.7-0.6,6.3-0.8c0.5,0.1,1.1,0.1,0.8,0.2c4.1-0.4,4.8,0.1,9.8-0.3l-1.2,0.1c6.1,0.4,6.7-0.5,12,0c-2.1-0.5,3.5-0.4,6.8-0.7
		c-5.3-0.2-8.2-0.9-18.8-0.9c-1.3,0.4-0.5,0.6-4.8,0.8l6.9,0c-1.5,0.1-2.6,0.2-4,0.3l-6.6-0.2c8.4-0.3,4.5-0.7,8.1-1.1
		c7.6,0.2,6.3-0.1,11.1,0c-0.5,0.6,14.7,1,23.5,1.4c-1.4,0-3.1,0-4.1,0c-6.4,0.4,4.4,0.5,4.6,0.7l4.7-0.3c-0.9,0-2.1,0.2-0.1,0.3
		c6.3-0.1,5.9-0.7,12.2-0.8c0.5,0.3-4.9,0.8-0.9,1c1.3,0.3,5.7,1,14,0.8c0.6-0.1,2.8-0.2,5.3-0.2c-0.3,0-0.8,0-0.9,0.1l5.6,0.4
		c-4.7,0.6-9.6-0.3-14.3,0.3l-0.4,0.5c-3.7,0-8.7,0.2-11,0.5c5.6,0.1,6.8,0,13.2-0.2c0.9,0.3-3.6,0.6-4.2,0.6l0.9-0.3
		c-7.5-0.4-11.3,0.5-20.6,0.4c-1.4,0-0.6-0.1-0.2-0.2c-7.6,0.5-15-0.2-22.4,0.5l2.4-0.3c-5,0.2-14.8,0.7-24.7,1.3l-0.1,0.2
		c1.1,0.1-2.6,0.1-4.6,0l0,0c-4.9,0.3-9.6,0.5-13.5,0.7c1.2,0.1,2.8,0.2,4.6,0.3c1.5-0.2,10.6,0,9.3-0.6c4.2,0.3,10.9-0.1,13.9,0.1
		c-5.6-0.4,3.9-0.5,4.9-0.8c1.9,0.3,8.3,0,7.5,0.4c1.1,0.1-2.7-0.3-5.1,0c-5.8,0.4,10.7,0.4,3.4,0.8c9.3-0.3,21.4-0.2,31-0.6
		l-5.3-0.2c4.2,0.1,14.3,0,15,0.2c-3.2,0.1-6.8,0-10.9,0.1c-0.2,0.5,9.7,0,10.1,0.3l11.7-0.9l-5.1,0c3.2-0.3,14,0.1,21.9,0.1
		c-4.6,0.7-12,0-20.4,0.3c-6.1,0.3,3.8,0.7-2,0.9c1.5,0.2,5.2,0.1,7.1,0l2.3,0.1c-5.1,0.7-16.6,0.5-24.3,1.1
		c0.7-0.1,1.3-0.1,1.5-0.2c-5.9-0.3-11.9-0.2-17.6-0.1c3,0.2,4.2,0.1,6,0c0.2,0.2-5.2,0.2-7.3,0.4c5.3,0.2,1,0.4,4.4,0.5
		c-3.5,0.2-6.3,0.1-10.5,0c-2.2-0.2,1.8-0.3,1.4-0.7c-4.4,0.2-6.4-0.6-12.8-0.2c8.5,0.1-2.2,0.7-5.2,0.9l1.4,0c-2.7,0.4-5,0.4-6.9,0
		c3.5-0.2,6.9,0,5.9-0.4c-2.3,0-4.6,0-7.2,0.1l2.4-0.3l-11.4,0.1c-1.8,0.3-4.8,0.8-6.4,1.3c-2.7-0.3-6.6-0.1-9.2,0.1l1.2-0.1
		c-5-0.3-16.3,0-17.2,0.3c-3.6-0.3,25.5-1.9,0-1.6c-9.7,0-6,1-11.6,1.3c0,0,0.3-0.1-0.2-0.2c-4.2-0.1-4.7,0.3-8.1,0.5
		c2.5,0.1,6.2,0.2,7.4,0c-1.3,0.4-8.8,0-12.1,0.3c4.2-0.6-8.2-0.2-4.9-0.6c-8.4-0.4-17.4,0.1-21.8,0.6c-5.7-0.8-10,0.1-19.3-0.3
		c1.4,0,4-0.1,6,0c5.3-0.5-9.6-0.3-1.5-0.7c-1.7,0.1-0.1,0.3,1.7,0.2c3.1-0.1,6.1-0.3,5.3-0.5l-7.6-0.4l2.6-0.1l-11.5-0.6
		c-0.3,0.1,0.8,0.2,1.3,0.3c-13.3-0.3-28.5,0.1-40.2,0c-2.2,1.4-28.7,0.6-38.1,1.5c2.5-0.4,3.9-1.1,2.3-1.4
		c2.1-0.1,6.4-0.6,11.2-0.5c0.8,0.2,6.6,0.5,2.9,0.7c13.2-0.2-1.8-0.6,2.1-1.1c-14.6,0.1-23.1,1-32.3,1.3l-0.2-0.2l-7,0.3
		c5.7,0.1,5.4,0.9-1.9,0.6l0.9,0c-4.2-0.3-12.9,0.1-19.4,0l-4.4,0.5c-6.5-0.1-6.8-0.9-8.9-1.4c-10.2-0.1-16.2,0.6-23.4,1.1
		c-3.3-0.4-18.6-0.5-10.5-0.9c-9.2,0.3-7.4,2.3-23.2,1.2l4.1-0.4c-15.1,0.1-36.8,0.8-43.7,0.4c5.6-1.3-18.9-1.3-21.6-2.6
		c0.8,0.3-4.9,0.4-5.8,0.5c-1.2-0.1-3.3-0.3-5.5,0c5.9,0.3-4.2,1.3,7.1,0.8c-5.7,0.9-13.1,1.5-25.6,1.5l0.2-0.5l9.9,0.2
		c-1-0.4,4.1-0.4,6.2-0.5c-18.4-0.3,2.4-1.2-16.4-1.2c-1.8,0.3-0.6,0.2-5.5,0.3c2.3,0,2.7-0.4-1-0.4l-3.6,0.4
		c-6.6-0.9,10.9-0.6,5.3-1.2c7.3-0.4,19.9-0.6,17.5-1.3c-11.9-0.2-10.7,1.3-23.1,1l-1.3-0.3c-4.4,0.2-5.1,0.7-7.5,0.9
		c-0.2-0.2-1.3-0.3-4.1-0.3c-7.4,0.7-12.3,0.8-19.1,1.5c18.1-0.6,15.5,0.5,34.2,0c-2.9,0.2-16.1,0.4-16.9,1.1l0.2-0.5
		c-6.1,0.3-12.2,0.5-19.8,0.4l4.7-0.3c-10.1,0.4-16.8-0.8-24.8,0.1c2.8,0,5.1,0,6.9,0c-5.2,0.2-11.7,0.2-17.4,0.1L764.3,23
		c0.1-0.3-7.3-0.3-3.7-0.7c-8.4-0.4-12.4,0.4-17.3,0.5c-8.6-0.6,7.5-0.2,8.3-1c-11.9-0.2-24.5,0-31.2,0.5c2.4,0.1,3.6,0.2,3.5,0.3
		c-0.4-0.2-5.2-0.1-7.8-0.1l-1.8,0.3c-4.5-0.2-3.8-0.4,0-0.7c-4.3-0.1-9.3,0.6-13.7,0.1c7.3-0.4,16.5-0.1,20.3-0.3
		c-15.2,0.3-15.3-1-34.5-0.6c-0.2-0.2,3-0.5-0.7-0.5c-8.6,0.1-2.2,0.7-4.9,1.1c6.6-0.2,9.7,0,13.5,0.4l-1.8,0.3
		c-0.3-0.1-4.4-0.2-5.6-0.3l-1.1,0.6c0.5-0.6-6.1-1.1-11.4-0.9c5.3,0.5,3.9,0.4,5.3,1.1c-7.3,0.7-8.3-0.7-16.5,0.1
		c0.6-0.2,7.8-0.4,1.6-0.5c-5.1,0-4.5,0.5-7.9,0.6c3.9-0.5,2.9-0.9,7.1-1.5c9.1-0.1,3.7,0,12.6-0.2l-7.6-0.4
		c7.7-0.1,5.6-0.6,6.3-0.8c-13.2-0.5-10,0.8-18.5,0.7c-4.1,0.4,8,0.1,1.6,0.5c-7.9-0.1-1.8,0.3-10.7,0.6l1.5-0.2
		c-2.7-0.3-5.4,0.1-8.6,0.1c-3.5,0.2,3.9,1.8-10.3,1.9c0.7-0.1,1-0.2,1-0.3l13.9-4.4c-14.5,0-31.1-0.1-47.9-0.4
		c-3.9-0.9,12-0.7,10.9-1.1l7.6,0.2c-0.4,0.4-16,0.1-9.1,0.8c13.5-0.3,19.6,0.2,32.4-0.6c-4-0.9-16.9,0.2-25.2-0.5
		c3.5,0.1,6.4,0,9.3-0.2c-7.8-0.1-16.2-0.2-25.1-0.4l-2,0.2c6,0.1,10.1,0.2,10.7,0.2c-7.9-0.1-14.6,0.4-15.2,1l1.4,0l-2.9,0.2
		C588.2,18.5,586.3,18.5,584.5,18.4z M69.4,18.3c0.5-0.1,0.9-0.1,1.1-0.2C70.3,18.1,70.6,18.2,69.4,18.3z M740.1,16.3
		c-10.6-0.1-21.3-0.3-31.5-0.3c18.4,1.2,31.3,2.2,0.6,2.2l-2,0.1c4,0.2,10.9,0.2,17.4,0.1c5.3-0.4,22.2-2.1,22.1-2.2
		c-1.9-0.3-4.6,0-8-0.1L740.1,16.3z M747.6,18.4c6,0.1,4.6-0.1,5.6-0.4c-2.1,0-4.2,0.1-6.3,0.1C747.7,18.2,748.1,18.2,747.6,18.4z
		 M752.8,17.7c-0.7,0-1.3,0-1.6-0.1L752.8,17.7z M636,17.4c0.3,0,0.4,0,0.6,0c-1.4,0-2.8,0-4.3-0.1C632.9,17.4,634,17.4,636,17.4z
		 M648.2,18l1.4-0.5c-1.3,0-2.7,0-4.1-0.1C646,17.7,646.5,17.9,648.2,18z M687.4,19.5c2.5-0.5,10.7-0.6,11.3-1.2
		c0.5-0.2-1.2-0.2-3.2-0.3c-2.2,0-4.5,0-7-0.1c-0.1,0.1-0.6,0.2-1.4,0.3c2.4,0.1,4.1,0.2,3.1,0.6c-6.3-0.8-5.6,0.6-12.4,0.4
		C675.7,19.7,685.3,19.7,687.4,19.5z M1207.8,17.9c0.2,0.1,0.9,0.2,1.8,0.4l-4.8,0.3c-8.5-0.1-15.3-1-23-0.3
		c-3.6-0.2-5.5-0.6-7.3-0.9c1.8,0,3.4,0.1,4.8,0.1C1200.8,16.3,1190.5,18.7,1207.8,17.9z M1110,16.8c0.9,0,1.2-0.1,1.2-0.1
		c-19,1.2-34.7,1.5-44.9,1.4c2,0.5,11.2,0.8,15.5,1l-3.9,0.5l-2.4-0.4l-6.7,0.5c1.9,0.4,7.3,0.3,10.9,0.5c0.3-0.1,11.9-0.7,15.2-1
		l-9.3-0.4c2.5,0.1,14.8,0,19.7-0.1c0.1-0.3-8.3-0.7-9.4-0.1c-1-0.4,8.7-0.4,2.6-0.8c7.3-0.4,18.8-0.1,24.2,0.1l0.9,0.7
		c5.9,0.3,4-0.8,11-0.4c-8.6,0.1,1.5,0.7-5.4,0.8c2.2,0.2,0,0.7,6.9,0.6c5.7-0.9,7.2,0.5,12.6-0.2c3.6,0.3-3.9,0.5,3.2,0.6
		c8.1-0.5,7.7-0.8,8.2-1.4c-7.6-0.2-8.5,0.8-14.8,0.7l12.4-1.1c-2.3-0.2-4-0.2-5.4-0.1c2.5-0.1,4.6-0.2,6.4-0.4c1-0.1,2-0.2,2.9-0.3
		c-7,0-13.2,0-14.3-0.3l1-0.3c-2.5-0.3-6.5-0.1-8.4,0.2c-6.3,0-12.5,0.5-13.9,0.1l2.4-0.3C1120.6,16.7,1119.7,16.8,1110,16.8z
		 M857.2,16.1c4.7,1.1,9.8,2.1,31.6,1.9l-1.7,0.1c11,0.7,21.4-0.9,34.8-0.1c-6.5,0.4-6.1,0.4-13.3,1.3l7-0.3
		c-1.9,0.6,5,0.3,10.1,0.3l-4.5,0.7c-3.1-0.2-11-0.3-10.8-0.1c1.7-0.1-10.5-0.9-17.1-0.7c0.7,0.5,14.7,0.3,8.5,1.1
		c5.5-0.3,6.2,0.2,12,0c-5.5,0.3-1.4,0.7-5.5,1l9.5-0.2c0.2,0.2-13.8,0.4-6,1c3.8-0.3,13.9,0.1,14.1-0.5l0.2,0.2
		c7.1,0.1,3.1-0.7,11.8-0.4c0.1-0.3-1.6-0.4-4.7-0.4c-2.6,0.1-3,0.5-8.5,0.6c-2.4-0.4,6.6,0.1,2.8-0.6c-1.9-0.3-14.3,0.3-10.4-0.5
		l7.1,0.1c0.2-0.5,5.3-0.5,5.2-0.9c4.3-0.2,8.4,0.4,12.8-0.1c1.8-0.3-1.4-1,5.9-0.7c5.7,0.8,22.6,0.6,28.9,0.5l5.5-0.3
		c-0.5-0.3-10.6,0-7-0.4l8.6-0.1l-0.7,0.2c2.9,0,5.8-0.2,8.4-0.3c-2.7,0.4-8.9,0.2-7.7,0.8c4,0.1,4.7,0.3,8.4,0.2
		c-0.8,0-1.5,0.1-1.4,0.2c8.2,0.2,7.9-0.6,10-0.8c8.2-0.7-8.3-0.7-7.2-1.2l24-0.3c-2.1,0.2-4.1,0.4-3.3,0.6c5.9,0.3,0.1,0.4,8.4,0.4
		c-0.6-0.8,10.4-0.5,16.3-0.9c2.7,0.3,3.3,0.4-2.7,0.4c0.7,0.5,8.7,0.3,11.6,0.3c1.7-0.1,4.5-0.2,6.3-0.3c-2.4-0.2-1.4-0.5,3.8-0.8
		l0.3-0.1c-8.5-0.1-21.7-0.7-27-0.2l1.5-0.2c-9.8-0.4-21.4,0.9-25.9,0c0.4-0.4-2-0.1-1.8-0.6l-7.2,0.4l1.5-0.2l-12.3,0.1l0.3-0.1
		c-5.8,0.5-10.4,0.9-14.1,1.2c0,0.2,0.4,0.3-1.6,0.5c-2,0.1-3.4,0.1-4.8,0.1c0,0,0,0,0,0c0,0,0,0,0,0c-3-0.1-5-0.4-8.7-0.5l11.4-0.1
		c0.9-0.4,0-0.8-5.6-1.1c2.3,0,3.3-0.3,0.4-0.4c-0.3,0.1-7.5,0.2-4.8,0.6c-10.9,0.1-28.5-0.9-45-0.1c11.9-0.4-9.5-0.5,3.7-0.7
		c-9.2-0.6-7.9,0.6-17.3,0.5c-0.8-0.2,5.1,0,7.3-0.4c-15.6-0.3-26.3,1-41.3,0.8l-0.6-0.5C863.6,16,860.4,16,857.2,16.1z M827.4,16.7
		c-2.9,0.1-5.8,0.1-8.8,0.2c0.3,0,0.6,0,0.9,0l-8.7,0.4c5.4,0.2,8.9,0.7,1.4,1c0.6-0.2-1.6-0.4,1-0.6c-5-0.3-16-0.6-13.2,0.2
		c9.6-0.7,2.2,0.9,9.8,0.4c-4.1,0.5-8.1,0.3-11.9,0.5c4-0.4-0.9-0.9-6.9-1.1c-2.6,0.1-9.7,0-14,0.2c1.5,0.5-2.2,0.7,4.8,0.8
		c-2.6,0.1-6.6,0.2-11.1,0c1.8-0.1,4.9-0.1,4.7-0.3c-2.9-0.4-6.3-0.4-8.2-0.6c-1.5,0-3,0-4.5,0.1c0.4,0,0.8,0.1,1.1,0.2l-5,0.4
		c6.6-0.2,3.1,0.2,3,0.5c0.2-0.5-4.3-0.1-6.5-0.1l4.9,0.6c-2.4,0.3-8.4-0.4-7.2,0.1c10.5,0.2,14.5,0.1,23.9,0l-3.8-0.4
		c10.7-0.3,6.6,0.7,18.5,0.7c5-0.4,18,0,18.2-0.8c-1.5,0.2,7.5,0.7,11.6,0.3c4.5-0.7,18.2-0.8,14.1-1.2c-3.7,0-8.7,0.4-11.7-0.1
		l7.2-0.2l-4.7-0.4C828.7,17.7,828.5,17.3,827.4,16.7z M666.5,12.3c-0.1,0-0.2,0-0.3,0C666.4,12.3,666.5,12.3,666.5,12.3L666.5,12.3
		z"/>
	<path class="st0" d="M1314.2,16.3c2.1-0.2,7.2-0.2,6.2-0.5C1320.5,16.1,1311.2,15.8,1314.2,16.3z"/>
	<path class="st0" d="M1320.3,16.7c0.4-0.1,0.1-0.3,2.4-0.3l-6.3,0.1L1320.3,16.7z"/>
	<path class="st0" d="M1326.7,19.6c3.3-0.3,5.3-0.5,10.4-0.5c1.9,1-8.4,0.3-10.7,1.3c9.4,0.1,12.2-0.8,19.9-0.9
		C1342.6,19,1327,18.8,1326.7,19.6z"/>
	<polygon class="st0" points="1322.5,20.9 1327.8,20.7 1327.2,20.6 1322,20.8 	"/>
	<path class="st0" d="M1209.8,11.9c-0.5-0.3-3.7,0-5.5,0.1C1205.7,12,1207.7,12,1209.8,11.9z"/>
	<path class="st0" d="M186.5,11.5l-39.7,0.3C158.2,11.8,168.7,11.7,186.5,11.5z"/>
	<path class="st0" d="M1077.9,14c10.7-0.3,15.4-0.9,26.3-1c-14.3-0.7-18.9,1-30.9,0.4L1077.9,14z"/>
	<path class="st0" d="M1081.7,11.4c1.8,0.6-8.2,0.7-6.7,1.2c7.2-0.1,3.3-0.6,9.9-0.5L1081.7,11.4z"/>
	<polygon class="st0" points="1130,21.5 1126.8,21.8 1129.4,21.7 	"/>
	<polygon class="st0" points="1033.1,11.9 1034.3,11.8 1028.9,11.6 	"/>
	<path class="st0" d="M1035.4,11.7l-1.2,0.1L1035.4,11.7z"/>
	<polygon class="st0" points="1125.9,22.8 1130.7,23 1133.1,22.7 	"/>
	<path class="st0" d="M1083.4,19.5l4.3-0.2C1086.9,19.4,1081,19.1,1083.4,19.5z"/>
	<polygon class="st0" points="1000.4,11.7 995.2,11.9 995.7,12 1000.9,11.7 	"/>
	<path class="st0" d="M1049.8,21.2c3,0.5-8.6,0.1-2.5,0.5C1052.8,21.7,1050.5,21.5,1049.8,21.2z"/>
	<path class="st0" d="M986.7,18c-0.7,0-1.4,0-2.2,0.1C985.3,18.1,986.1,18.1,986.7,18z"/>
	<path class="st0" d="M986.7,18c2.3,0,4.6,0.2,6.1,0C989.9,17.9,988.9,18,986.7,18z"/>
	<path class="st0" d="M960.5,18.1l2.1,0c-2.1,0.2-1.1,0.2,0.8,0c2.2,0,2.1-0.2,2.3-0.3c0.4-0.1,0.9-0.1,1.3-0.2
		c-0.7,0.1-1.3,0.1-1.8,0.2C961.9,17.9,959.8,17.9,960.5,18.1z"/>
	<path class="st0" d="M863.6,10.2c7.6,0.2,9.6,0.3,9.2,0.6c7.2,0.1,6.1-0.5,10.5-0.7C875.1,10.3,873.4,10.1,863.6,10.2z"/>
	<path class="st0" d="M883.3,10.2c0.9,0,1.8,0,2.9,0C884.9,10.1,884,10.2,883.3,10.2z"/>
	<polygon class="st0" points="991.1,22.1 986.3,22.7 988.1,22.6 	"/>
	<path class="st0" d="M852.2,10c1.4,0,3.7,0,4.8,0.1C857.5,9.8,850.8,10,852.2,10z"/>
	<path class="st0" d="M881.7,17.2c0.8,0.2,5.7,0.1,7.6,0.2C886.5,17.3,884.1,16.7,881.7,17.2z"/>
	<path class="st0" d="M830.4,11.5c1.4,0,3.6,0.3,2.6,0.6C835.1,11.9,837.8,11.3,830.4,11.5z"/>
	<polygon class="st0" points="867.7,17.1 868.8,17.3 874,17 	"/>
	<path class="st0" d="M886.4,22.5c5.9-0.4-9.3-1.1,0.8-1.4c-13-0.5,1,0.6-8.6,0.5C884.2,21.8,886.9,22.3,886.4,22.5z"/>
	<path class="st0" d="M878.5,21.7c-0.8,0-1.7,0-2.7,0C876.9,21.6,877.8,21.6,878.5,21.7z"/>
	<path class="st0" d="M795.9,18.9c0.9,0,1.4-0.1,2-0.1C797.2,18.8,796.5,18.8,795.9,18.9z"/>
	<path class="st0" d="M847.8,22l8.8-0.7c-5.9,0.4-20.7,0.4-19.7,1.1c4.8,0.1,10.6,0,12.9-0.3L847.8,22z"/>
	<path class="st0" d="M746.8,10.2l3.8-0.3l-4.7-0.1C747.2,10,744.7,10.4,746.8,10.2z"/>
	<path class="st0" d="M744.9,9.9l0.9,0C745.6,9.8,745.3,9.8,744.9,9.9z"/>
	<path class="st0" d="M812.5,18.6c2.8,0,5.1,0,7.7-0.1C819.2,18.4,812.1,18.3,812.5,18.6z"/>
	<polygon class="st0" points="720,11.1 726.3,11 719.4,11.1 	"/>
	<polygon class="st0" points="690.7,10 689.6,9.9 684.4,10.2 685.5,10.3 	"/>
	<path class="st0" d="M729,22.9c4.3,0.1,7.6-0.5,6.5-0.6l-8.3,0c2.1,0.5,2.3,0,7.1,0.1L729,22.9z"/>
	<path class="st0" d="M473.3,11c1.8-0.3,10.9-0.1,11.3,0.2c-1.2,0.1-6.1,0.3-3,0.5l7.1-0.8c9.5,0.5-7.2,1.1-11.9,1.4
		c9.7,0.1,12.5-0.4,22.8-0.4c-3-0.1-5-0.3-6.6-0.5c-0.3-0.6,9.2-0.3,16.1-0.4c-4.4-0.3-1.8-0.5,1.3-0.7c0.6,0,1-0.1,1.2-0.1
		c0.4,0,0.7-0.1,1.1-0.1l-0.8,0c0.1-0.1-0.1-0.1-0.7-0.3c-5.8,0.2-10.2-0.3-13.9-0.3c3.7,1-12.6,0.2-17.3,0.5l-5.4,0.1l-2,0
		c-0.4-0.1,0.2-0.2,3.2-0.4c-2.6,0.2-11.1,0.1-10.3,0.4l-19.5,0c-0.6,0-1.2-0.1-1.7-0.2c-0.7,0.1-0.8,0.1-0.7,0.2L359,10.2
		c4.2,0.1,7.8,0.3,12.1,0.4c-6.5,0.6,7.1,0.1,5.2,0.7c-2.9,0.2-7.2,0.2-9.7,0c-0.9,0.3,2.7,0.6,2.3,0.9c10.7,0.4,12.3-1.1,22.8-0.9
		c-0.4,0.4-3.6,0.7,3.2,0.6l-1.7,0.1c11-0.4,8.5,0.8,15.4-0.2l-0.2,0.5c5-0.4,14.7-0.4,20.1-0.5l-0.3,0.1c15.3-0.6,8.6-0.1,25.8-0.4
		l-7.9,0.6c5.9,0.3,7.3-0.4,11.5-0.3c-0.3,0.1,0.7,0.5-3.3,0.6l20.8-0.9C480,11.2,474.1,11.2,473.3,11z"/>
	<path class="st0" d="M499.7,11.8c1.1,0,2.4,0,3.8,0C502.1,11.8,500.8,11.8,499.7,11.8z"/>
	<path class="st0" d="M353,10.2l6,0C357.2,10.1,355.2,10.1,353,10.2z"/>
	<path class="st0" d="M529.5,10.6c-3.6-0.3,2.7-0.4,3.3-0.6l-12.9,0c0.1,0.2-1.2,0.4-1,0.6L529.5,10.6z"/>
	<path class="st0" d="M516.2,9.7c-0.4,0.1-1.8,0.3-3.3,0.4l7.1,0C519.9,9.9,519.1,9.8,516.2,9.7z"/>
	<polygon class="st0" points="517.6,20.5 515.3,20.5 511.8,20.7 	"/>
	<path class="st0" d="M481.7,19.6c2.7,0.3,7.9,0.1,9.7,0C485.4,19.6,488,19.5,481.7,19.6z"/>
	<polygon class="st0" points="489.1,22.9 483.3,23.1 483.9,23.2 	"/>
	<path class="st0" d="M309,12.3c-0.9,0-1.9,0-2.8,0C307.5,12.3,308.3,12.3,309,12.3z"/>
	<path class="st0" d="M358.5,11.7c-13.8-0.6,9-0.5,4.7-1.3l-7.5,0.3l0.6-0.2l-9.1,0.1c1.9,0.3,3.3,0.4,2.9,0.7
		c-12.2-0.1-3.8-0.4-12.8-0.9l-13.6,0.1l1.1-0.1c-1.1,0-1.7,0.1-2,0.1l-45.9,0.2c-8.4,0.3,4.6,0.7-1.5,1.2c9.7,0,24.1,0.4,24.9-0.3
		c-0.3,0.1-1,0.3,1,0.4l5.6-0.6l-5.3-0.2c5.6-0.6,23.8-0.5,27.1-0.1c-10.3,0.2-5.2,0.9-19.6,0.5c0.6,0.2,3.3,0.5,0,0.6
		C325.9,12,341,12.4,358.5,11.7z"/>
	<path class="st0" d="M189.1,12.1l0.1-0.1C188.9,12.1,188.8,12.1,189.1,12.1z"/>
	<path class="st0" d="M194.8,12.2l8.2-0.7l-12.8,0.1l-0.9,0.5c1.1-0.1,5.6-0.4,7.4-0.2L194.8,12.2z"/>
	<path class="st0" d="M212.6,11c-6.6,0.2-6.3,0.8-2.7,1.1c-6.1,0.3-3.2-0.6-7.4,0c0.1,0.4,7.6,0.2,9.4,0.1L212.6,11z"/>
	<polygon class="st0" points="261.5,11.4 259.6,11.6 264.2,11.7 	"/>
	<path class="st0" d="M259.6,11.6l-4.6-0.1c0.3,0.2,0.6,0.4,1.4,0.5L259.6,11.6z"/>
	<path class="st0" d="M243.1,11.4c-1.9,0-4.1-0.1-6.7-0.1L243.1,11.4z"/>
	<path class="st0" d="M248.3,11.5l-0.2-0.1l-5.1-0.1C245,11.4,246.6,11.5,248.3,11.5z"/>
	<path class="st0" d="M255,11.5c-0.7-0.4-1.6-0.8-8.2-0.7l1.3,0.6L255,11.5z"/>
	<polygon class="st0" points="447.1,22.3 441.9,22.5 442.5,22.6 447.7,22.4 	"/>
	<path class="st0" d="M417.1,21.9c-1.3,0.1-2.3,0.1-3.2,0.2C415.3,22.1,416.3,22,417.1,21.9z"/>
	<path class="st0" d="M394.7,24.7c-6.1-0.4,8.5-0.6-2.9-0.7c-1-0.4,4.3-0.9,9.7-0.7c-0.4,0.4-5.2,0.2-1.9,0.6
		c3.5-0.4,4.9-0.1,3.7-0.7c6-0.3,6.6-0.7,10.7-1.1c-7.2,0.2-22.4-0.3-31.5,0.4c-5.1,0.7-2,1.6-2,2.5
		C381.1,25.3,394.2,25.4,394.7,24.7z"/>
	<path class="st0" d="M404.4,25.7c2.8,0,3.7,0,5.4-0.1C409.3,25.3,406.6,25.7,404.4,25.7z"/>
	<path class="st0" d="M339.2,18.5c-0.5,0.1-5.7,0.3-4.6,0.5l7.8-0.2C340.5,18.9,339.9,18.7,339.2,18.5z"/>
	<path class="st0" d="M345.8,18.8l-3.4,0.1C343.2,18.9,344.3,18.9,345.8,18.8z"/>
	<path class="st0" d="M338.8,18.4c0.1,0,0.2,0.1,0.4,0.1C339.3,18.5,339.3,18.5,338.8,18.4z"/>
	<path class="st0" d="M224.2,11.1c0.1-0.3-3.4-0.1-5.1,0C220.5,11.1,222.5,11.2,224.2,11.1z"/>
	<path class="st0" d="M93.7,12.2l-3.1-0.2C91.7,12.1,92.2,12.1,93.7,12.2z"/>
	<path class="st0" d="M46.5,19.3c-0.1,0.1-0.3,0.1-0.6,0.1C46.1,19.4,46.4,19.4,46.5,19.3z"/>
	<path class="st0" d="M45.8,19.4c-2.1,0.2-8.6-0.1-10.9,0.2l0.3-0.1l-4.3,0.2C35,19.7,43.5,19.8,45.8,19.4z"/>
</g>
</svg>
