<svg id="Calque_1" data-name="Calque 1" xmlns="http://www.w3.org/2000/svg" viewBox="0 0 183.1 198.99"><defs><style>.cls-1{fill:#fff;}</style></defs><title>mail</title><path class="cls-1" d="M154.48,153.18H30.62a19.48,19.48,0,0,1-19.46-19.46V66.27A19.47,19.47,0,0,1,30.62,46.82H154.48a19.47,19.47,0,0,1,19.46,19.45v67.45A19.48,19.48,0,0,1,154.48,153.18ZM30.62,55.82A10.47,10.47,0,0,0,20.16,66.27v67.45a10.48,10.48,0,0,0,10.46,10.46H154.48a10.48,10.48,0,0,0,10.46-10.46V66.27a10.47,10.47,0,0,0-10.46-10.45Z"/><polygon class="cls-1" points="91.04 110.25 32.69 78.07 34.62 74.57 91.94 106.18 149.37 74.73 151.29 78.24 92.85 110.24 91.04 110.25"/></svg>