<svg id="Calque_1" data-name="Calque 1" xmlns="http://www.w3.org/2000/svg" viewBox="0 0 556.33 45"><defs><style>.cls-1{fill:#423229;}</style></defs><title>titre_survivalkit_Plan de travail 1</title><path class="cls-1" d="M18.8,31.55q0,4.81-2.43,7.36c-1.61,1.71-4,2.56-7,2.56a15.39,15.39,0,0,1-7.62-1.76v-6.3a13.16,13.16,0,0,0,7.05,2.5,3.58,3.58,0,0,0,2.76-1,3.91,3.91,0,0,0,.92-2.75A4.92,4.92,0,0,0,11.39,29a16.16,16.16,0,0,0-3.63-3.16A16,16,0,0,1,4.42,23a10.53,10.53,0,0,1-1.76-3.12,12.08,12.08,0,0,1-.62-4,9.74,9.74,0,0,1,2.45-7,8.62,8.62,0,0,1,6.57-2.58,14.43,14.43,0,0,1,7.58,2.21l-2.11,5.1a22.52,22.52,0,0,0-2.36-1.17,6.82,6.82,0,0,0-2.64-.51,2.9,2.9,0,0,0-2.38,1,4.28,4.28,0,0,0-.83,2.77,4.78,4.78,0,0,0,1,3,14.73,14.73,0,0,0,3.48,2.93,14.63,14.63,0,0,1,4.68,4.59A10.68,10.68,0,0,1,18.8,31.55Z"/><path class="cls-1" d="M36.75,41,36,37.65h-.33a6.63,6.63,0,0,1-6.14,3.82,6.26,6.26,0,0,1-5.32-2.39q-1.8-2.4-1.8-7.15v-17h6.3V30.43a10.62,10.62,0,0,0,.68,4.31,2.29,2.29,0,0,0,2.2,1.46,3.07,3.07,0,0,0,2.94-2q.93-2,.93-6.77V14.89h6.3V41Z"/><path class="cls-1" d="M58.1,14.4a7.45,7.45,0,0,1,2.25.35l-.72,6.05a5.09,5.09,0,0,0-1.71-.24,4,4,0,0,0-3.5,1.8,9.27,9.27,0,0,0-1.21,5.21V41H47V14.89H52.1L52.81,19H53a9.62,9.62,0,0,1,2.25-3.52A4.21,4.21,0,0,1,58.1,14.4Z"/><path class="cls-1" d="M67.31,41,60.49,14.89H67L70.29,30c.14.7.31,1.73.51,3.08s.31,2.32.36,2.92h.09c0-.47.08-1.14.2-2s.24-1.68.36-2.41,1.33-6.3,3.61-16.69h6.47L75.05,41Z"/><path class="cls-1" d="M84.33,8.07a3.32,3.32,0,0,1,.9-2.45,3.41,3.41,0,0,1,2.52-.9,3.32,3.32,0,0,1,2.44.9,3.28,3.28,0,0,1,.91,2.45,3.23,3.23,0,0,1-.93,2.47,3.38,3.38,0,0,1-2.42.88,3.45,3.45,0,0,1-2.48-.88A3.2,3.2,0,0,1,84.33,8.07ZM90.82,41H84.59V14.89h6.23Z"/><path class="cls-1" d="M100.34,41,93.52,14.89H100L103.31,30c.15.7.31,1.73.51,3.08s.32,2.32.36,2.92h.1a19.42,19.42,0,0,1,.2-2c.11-.87.23-1.68.36-2.41s1.33-6.3,3.61-16.69h6.47L108.07,41Z"/><path class="cls-1" d="M130.36,41l-1.24-3.56H129a8.89,8.89,0,0,1-2.86,3.16,7.28,7.28,0,0,1-3.73.87,5.39,5.39,0,0,1-4.53-2.16,9.64,9.64,0,0,1-1.65-6q0-4.13,2.26-6.13T125.23,25l3.47-.14V23q0-3.64-3.17-3.65a10.82,10.82,0,0,0-5.39,1.83L118,16.81a15.51,15.51,0,0,1,8.46-2.46,8.09,8.09,0,0,1,6.31,2.38,9.63,9.63,0,0,1,2.17,6.74V41ZM125,36.59a3.14,3.14,0,0,0,2.73-1.53,7.29,7.29,0,0,0,1-4.09v-2.2l-1.92.09a4.33,4.33,0,0,0-3.13,1.22,4.72,4.72,0,0,0-1,3.28C122.65,35.52,123.42,36.59,125,36.59Z"/><path class="cls-1" d="M146.21,41H140V4.53h6.24Z"/><path class="cls-1" d="M169.43,26.94,171,23.82l5.16-8.93h6.61L176.16,25.6,183.21,41h-6.54L172,30l-2.43,2.2V41h-6.24V4.53h6.24V21.71l-.29,5.23Z"/><path class="cls-1" d="M185.7,8.07a3.32,3.32,0,0,1,.9-2.45,3.41,3.41,0,0,1,2.52-.9,3.34,3.34,0,0,1,2.44.9,3.28,3.28,0,0,1,.91,2.45,3.2,3.2,0,0,1-.94,2.47,3.36,3.36,0,0,1-2.41.88,3.49,3.49,0,0,1-2.49-.88A3.23,3.23,0,0,1,185.7,8.07ZM192.19,41H186V14.89h6.23Z"/><path class="cls-1" d="M206.6,36.2a7.19,7.19,0,0,0,2.84-.66v4.87a8,8,0,0,1-4.57,1.06,6.1,6.1,0,0,1-5-2q-1.64-2-1.64-6.08V19.84h-2.53V17.05l3.26-2.25,1.59-5.53h4v5.62h4.74v4.95h-4.74V33.57C204.49,35.32,205.2,36.2,206.6,36.2Z"/><path class="cls-1" d="M236.56,19.84h-4.32V41H226V19.84h-3V16.72l3-1.88v-2q0-4.36,1.8-6.49t5.82-2.12a10.76,10.76,0,0,1,4.71,1.06l-1.64,4.76a5.41,5.41,0,0,0-2.39-.57,1.66,1.66,0,0,0-1.57.85,5.28,5.28,0,0,0-.5,2.6v1.92h4.32Z"/><path class="cls-1" d="M258.63,27.9q0,6.42-2.71,10a9.48,9.48,0,0,1-12.75,1.94,10.39,10.39,0,0,1-3.54-4.72,19.19,19.19,0,0,1-1.25-7.21c0-4.24.9-7.54,2.7-9.93a8.85,8.85,0,0,1,7.48-3.57A8.7,8.7,0,0,1,255.9,18Q258.63,21.69,258.63,27.9Zm-13.87,0a16.46,16.46,0,0,0,.89,6.16,3,3,0,0,0,2.86,2.09q3.75,0,3.75-8.25a15.85,15.85,0,0,0-.9-6.13,3,3,0,0,0-5.71,0A16.08,16.08,0,0,0,244.76,27.9Z"/><path class="cls-1" d="M274.15,14.4a7.45,7.45,0,0,1,2.25.35l-.73,6.05a5,5,0,0,0-1.71-.24,4,4,0,0,0-3.49,1.8,9.26,9.26,0,0,0-1.22,5.21V41H263V14.89h5.13l.7,4.08h.21a9.62,9.62,0,0,1,2.25-3.52A4.23,4.23,0,0,1,274.15,14.4Z"/><path class="cls-1" d="M304.06,41V25.44a10.58,10.58,0,0,0-.68-4.29,2.29,2.29,0,0,0-2.21-1.45,3.09,3.09,0,0,0-2.95,2c-.62,1.34-.94,3.59-.94,6.76V41h-6.23V14.89H296l.75,3.35h.4a6.68,6.68,0,0,1,2.42-2.82,6.58,6.58,0,0,1,3.68-1,6.15,6.15,0,0,1,5.33,2.44c1.18,1.62,1.77,4,1.77,7.12V41Z"/><path class="cls-1" d="M325,41.47A9.4,9.4,0,0,1,317.29,38q-2.84-3.48-2.83-9.86T317,18a8.22,8.22,0,0,1,7.12-3.63,8.11,8.11,0,0,1,6.73,3.1c1.64,2.07,2.46,5,2.46,8.71v3.33H320.79a8.5,8.5,0,0,0,1.43,5.19,4.56,4.56,0,0,0,3.75,1.7,12.15,12.15,0,0,0,6.24-1.9v5.13A13.65,13.65,0,0,1,325,41.47ZM324.1,19.2a2.57,2.57,0,0,0-2.21,1.42,9.62,9.62,0,0,0-1,4.4h6.33a9.53,9.53,0,0,0-.86-4.34A2.52,2.52,0,0,0,324.1,19.2Z"/><path class="cls-1" d="M355.64,41,353,25.84l-.91-6.4H352c-.23,2.08-.42,3.58-.56,4.51s-1.13,6.61-3,17.05h-8l-5.2-26.11h6.25l2.39,14.39c.29,1.6.54,3.93.78,7h.14c0-.83.14-2.09.33-3.79s.32-2.78.39-3.27l2.58-14.34h8l2.55,14.39a62.59,62.59,0,0,1,.78,7h.09c.22-2.8.49-5.13.82-7l2.48-14.39H369L363.75,41Z"/><path class="cls-1" d="M398,33.36a7.86,7.86,0,0,1-2.23,6q-2.25,2.15-6.6,2.15a12.3,12.3,0,0,1-6.4-1.52V34.53a11.9,11.9,0,0,0,3,1.48,9.6,9.6,0,0,0,3,.58,3.09,3.09,0,0,0,2.21-.71,2.47,2.47,0,0,0,.76-1.89,3,3,0,0,0-.79-2.08,13.4,13.4,0,0,0-2.93-2.18,12.13,12.13,0,0,1-4.07-3.6,8.15,8.15,0,0,1-1.23-4.51A6.59,6.59,0,0,1,385,16.34a9.42,9.42,0,0,1,6.27-1.94,12.53,12.53,0,0,1,6.54,1.83l-2,4.47a9.6,9.6,0,0,0-4.4-1.36,2.3,2.3,0,0,0-1.79.64,2.14,2.14,0,0,0-.6,1.54,2.7,2.7,0,0,0,.74,1.88,12.75,12.75,0,0,0,2.75,2A17.2,17.2,0,0,1,395.93,28a7.29,7.29,0,0,1,1.53,2.34A8.22,8.22,0,0,1,398,33.36Z"/><path class="cls-1" d="M411,36.2a7.19,7.19,0,0,0,2.84-.66v4.87a8,8,0,0,1-4.57,1.06,6.1,6.1,0,0,1-5-2c-1.1-1.35-1.64-3.38-1.64-6.08V19.84h-2.53V17.05l3.25-2.25,1.6-5.53h4v5.62h4.74v4.95h-4.74V33.57C408.89,35.32,409.6,36.2,411,36.2Z"/><path class="cls-1" d="M431.6,41l-.77-3.35h-.33a6.63,6.63,0,0,1-6.14,3.82A6.26,6.26,0,0,1,419,39.08q-1.8-2.4-1.8-7.15v-17h6.3V30.43a10.62,10.62,0,0,0,.68,4.31,2.29,2.29,0,0,0,2.2,1.46,3.09,3.09,0,0,0,2.95-2q.92-2,.92-6.77V14.89h6.31V41Z"/><path class="cls-1" d="M448.69,41.47a6.37,6.37,0,0,1-5.7-3.56q-2.08-3.57-2.08-9.92t2-10q2-3.62,5.62-3.61a5.32,5.32,0,0,1,3.08.88,8,8,0,0,1,2.41,3h.37c-.19-2.37-.28-4-.28-5V4.53h6.23V41h-4.64l-1.05-3.4h-.21Q452.48,41.47,448.69,41.47Zm2-5.27a2.65,2.65,0,0,0,2.53-1.59,14.69,14.69,0,0,0,.86-5.75V28a17.68,17.68,0,0,0-.81-6.4,2.74,2.74,0,0,0-2.66-1.85c-1.15,0-2,.71-2.51,2.12a18.47,18.47,0,0,0-.79,6.18,17.57,17.57,0,0,0,.8,6.08A2.71,2.71,0,0,0,450.71,36.2Z"/><path class="cls-1" d="M475.27,41.47A9.43,9.43,0,0,1,467.54,38q-2.82-3.48-2.82-9.86T467.28,18a8.83,8.83,0,0,1,13.85-.53c1.64,2.07,2.46,5,2.46,8.71v3.33H471.05a8.5,8.5,0,0,0,1.43,5.19,4.53,4.53,0,0,0,3.75,1.7,12.09,12.09,0,0,0,6.23-1.9v5.13A13.64,13.64,0,0,1,475.27,41.47Zm-.92-22.27a2.56,2.56,0,0,0-2.2,1.42,9.62,9.62,0,0,0-1,4.4h6.33a9.39,9.39,0,0,0-.87-4.34A2.49,2.49,0,0,0,474.35,19.2Z"/><path class="cls-1" d="M500.72,41V25.44a10.58,10.58,0,0,0-.68-4.29,2.28,2.28,0,0,0-2.2-1.45,3.09,3.09,0,0,0-3,2q-.93,2-.93,6.76V41h-6.24V14.89h5l.75,3.35h.4a6.44,6.44,0,0,1,6.09-3.84,6.14,6.14,0,0,1,5.33,2.44c1.18,1.62,1.77,4,1.77,7.12V41Z"/><path class="cls-1" d="M521.11,36.2a7.19,7.19,0,0,0,2.84-.66v4.87a8,8,0,0,1-4.57,1.06,6.1,6.1,0,0,1-5-2c-1.1-1.35-1.64-3.38-1.64-6.08V19.84h-2.53V17.05l3.25-2.25L515,9.27h4v5.62h4.74v4.95H519V33.57C519,35.32,519.71,36.2,521.11,36.2Z"/><path class="cls-1" d="M541.62,33.36a7.86,7.86,0,0,1-2.24,6q-2.24,2.15-6.6,2.15a12.32,12.32,0,0,1-6.4-1.52V34.53a12,12,0,0,0,3,1.48,9.55,9.55,0,0,0,3,.58,3.12,3.12,0,0,0,2.22-.71,2.51,2.51,0,0,0,.76-1.89,3,3,0,0,0-.8-2.08,13.4,13.4,0,0,0-2.93-2.18,12.09,12.09,0,0,1-4.06-3.6,8.07,8.07,0,0,1-1.24-4.51,6.6,6.6,0,0,1,2.29-5.28,9.39,9.39,0,0,1,6.27-1.94,12.58,12.58,0,0,1,6.54,1.83l-2,4.47A9.6,9.6,0,0,0,535,19.34a2.33,2.33,0,0,0-1.79.64,2.14,2.14,0,0,0-.6,1.54,2.74,2.74,0,0,0,.74,1.88,12.75,12.75,0,0,0,2.75,2A17.34,17.34,0,0,1,539.56,28a7.44,7.44,0,0,1,1.52,2.34A8,8,0,0,1,541.62,33.36Z"/><path class="cls-1" d="M545.51,37.79a3.93,3.93,0,0,1,1-2.84,3.89,3.89,0,0,1,6.79,2.84,3.83,3.83,0,0,1-1,2.84,3.92,3.92,0,0,1-2.87,1,3.84,3.84,0,0,1-2.89-1A3.92,3.92,0,0,1,545.51,37.79ZM552,30h-5.13L545.7,6.73h7.47Z"/></svg>