<svg id="Calque_1" data-name="Calque 1" xmlns="http://www.w3.org/2000/svg" viewBox="0 0 212.33 45"><defs><style>.cls-1{fill:#423229;}</style></defs><title>titre_starterbox</title><path class="cls-1" d="M18.63,31.22c0,3.2-.81,5.66-2.42,7.36s-4,2.56-7,2.56a15.44,15.44,0,0,1-7.62-1.76V33.07a13.24,13.24,0,0,0,7.06,2.51,3.54,3.54,0,0,0,2.75-1,3.87,3.87,0,0,0,.93-2.74,5,5,0,0,0-1.1-3.13,16.75,16.75,0,0,0-3.64-3.15,16.61,16.61,0,0,1-3.34-2.92A10.56,10.56,0,0,1,2.5,19.5a11.77,11.77,0,0,1-.62-4,9.72,9.72,0,0,1,2.44-7A8.66,8.66,0,0,1,10.9,5.91a14.39,14.39,0,0,1,7.57,2.2l-2.11,5.11A19.19,19.19,0,0,0,14,12.05a6.82,6.82,0,0,0-2.63-.52,2.89,2.89,0,0,0-2.38,1,4.25,4.25,0,0,0-.83,2.78,4.81,4.81,0,0,0,1,3,14.91,14.91,0,0,0,3.48,2.93,14.34,14.34,0,0,1,4.68,4.6A10.68,10.68,0,0,1,18.63,31.22Z"/><path class="cls-1" d="M31.55,35.86a7.3,7.3,0,0,0,2.83-.65v4.87a8.07,8.07,0,0,1-4.57,1.06,6.12,6.12,0,0,1-5-2q-1.64-2-1.64-6.08V19.5H20.6V16.71l3.26-2.25,1.59-5.53h4v5.63h4.73V19.5H29.44V33.24C29.44,35,30.14,35.86,31.55,35.86Z"/><path class="cls-1" d="M50.84,40.67,49.59,37.1h-.14a8.76,8.76,0,0,1-2.86,3.17,7.21,7.21,0,0,1-3.72.87A5.41,5.41,0,0,1,38.33,39a9.68,9.68,0,0,1-1.65-6q0-4.12,2.26-6.13c1.51-1.34,3.76-2.07,6.76-2.21l3.47-.15V22.62Q49.17,19,46,19a10.82,10.82,0,0,0-5.39,1.83l-2.16-4.31A15.54,15.54,0,0,1,46.92,14a8.11,8.11,0,0,1,6.32,2.38,9.66,9.66,0,0,1,2.17,6.74V40.67Zm-5.42-4.41a3.14,3.14,0,0,0,2.73-1.53,7.31,7.31,0,0,0,1-4.09V28.43l-1.92.1a4.36,4.36,0,0,0-3.13,1.21,4.79,4.79,0,0,0-1,3.29C43.13,35.18,43.89,36.26,45.42,36.26Z"/><path class="cls-1" d="M71.58,14.06a7.25,7.25,0,0,1,2.25.36l-.73,6a5.39,5.39,0,0,0-1.71-.23A4,4,0,0,0,67.9,22a9.32,9.32,0,0,0-1.22,5.22V40.67H60.45V14.56h5.13l.7,4.08h.21a9.45,9.45,0,0,1,2.25-3.52A4.22,4.22,0,0,1,71.58,14.06Z"/><path class="cls-1" d="M85.69,35.86a7.3,7.3,0,0,0,2.83-.65v4.87A8.07,8.07,0,0,1,84,41.14a6.12,6.12,0,0,1-5-2q-1.64-2-1.64-6.08V19.5H74.74V16.71L78,14.46l1.59-5.53h4v5.63h4.73V19.5H83.58V33.24C83.58,35,84.28,35.86,85.69,35.86Z"/><path class="cls-1" d="M101.81,41.14a9.39,9.39,0,0,1-7.72-3.49q-2.82-3.48-2.82-9.85t2.55-10.1A8.23,8.23,0,0,1,101,14.06a8.11,8.11,0,0,1,6.72,3.11q2.46,3.1,2.46,8.71v3.33H97.59A8.61,8.61,0,0,0,99,34.4a4.56,4.56,0,0,0,3.75,1.7A12.25,12.25,0,0,0,109,34.2v5.13A13.74,13.74,0,0,1,101.81,41.14Zm-.91-22.27a2.52,2.52,0,0,0-2.2,1.42,9.44,9.44,0,0,0-1,4.39H104a9.5,9.5,0,0,0-.87-4.33A2.5,2.5,0,0,0,100.9,18.87Z"/><path class="cls-1" d="M125.39,14.06a7.16,7.16,0,0,1,2.25.36l-.73,6a5.3,5.3,0,0,0-1.71-.23A4,4,0,0,0,121.71,22a9.32,9.32,0,0,0-1.22,5.22V40.67h-6.23V14.56h5.13l.7,4.08h.21a9.45,9.45,0,0,1,2.25-3.52A4.24,4.24,0,0,1,125.39,14.06Z"/><path class="cls-1" d="M142.66,6.4h8.75q5.34,0,7.78,2.08c1.62,1.38,2.44,3.58,2.44,6.59a9,9,0,0,1-1.29,5,5.21,5.21,0,0,1-3.52,2.43v.23a6.67,6.67,0,0,1,4.2,2.72,9.65,9.65,0,0,1,1.28,5.3,10.21,10.21,0,0,1-2.49,7.3A9,9,0,0,1,153,40.67H142.66Zm6,13.78h2.93a3.35,3.35,0,0,0,2.84-1.08,5.22,5.22,0,0,0,.82-3.21,4.17,4.17,0,0,0-.94-3.06,4.09,4.09,0,0,0-2.95-.92h-2.7Zm0,5.32v9.59h3.22a3.57,3.57,0,0,0,3-1.22,6,6,0,0,0,1-3.77q0-4.61-4-4.6Z"/><path class="cls-1" d="M186,27.56q0,6.44-2.72,10a9.46,9.46,0,0,1-12.75,1.93A10.27,10.27,0,0,1,167,34.77a19.16,19.16,0,0,1-1.25-7.21q0-6.35,2.7-9.92a8.86,8.86,0,0,1,7.48-3.58,8.71,8.71,0,0,1,7.34,3.65Q186,21.36,186,27.56Zm-13.87,0a16.52,16.52,0,0,0,.89,6.17,3,3,0,0,0,2.86,2.08q3.75,0,3.75-8.25a15.83,15.83,0,0,0-.9-6.12,3,3,0,0,0-5.71,0A16.05,16.05,0,0,0,172.08,27.56Z"/><path class="cls-1" d="M194.11,27.33l-6.52-12.77h6.47l3.47,8,3.21-8h6.42L200.6,27.33l6.85,13.34h-6.52l-3.7-8.35-3.45,8.35h-6.49Z"/></svg>