<?xml version="1.0" encoding="utf-8"?>
<!-- Generator: Adobe Illustrator 22.1.0, SVG Export Plug-In . SVG Version: 6.00 Build 0)  -->
<svg version="1.1" id="Calque_1" xmlns="http://www.w3.org/2000/svg" xmlns:xlink="http://www.w3.org/1999/xlink" x="0px" y="0px"
	 viewBox="0 0 183.1 199" style="enable-background:new 0 0 183.1 199;" xml:space="preserve">
<style type="text/css">
	.st0{fill:#FFFFFF;}
</style>
<title>world</title>
<path class="st0" d="M91.8,9.9C42.7,9.9,3,49.7,3.1,98.8c0.1,49.1,39.9,88.8,88.9,88.7s88.8-39.9,88.7-88.9
	c-0.1-43.8-32-80.9-75.2-87.7C100.9,10.2,96.4,9.9,91.8,9.9z M146.8,159.2c-33.3,30.3-84.8,27.9-115.2-5.3S3.6,69,36.9,38.6
	c2.6-2.4,5.3-4.6,8.2-6.6c22.4-15.6,51-19,76.4-9l0,0c30,11.8,50.3,40.2,51.7,72.4l0,0C174.2,119.6,164.5,142.9,146.8,159.2
	L146.8,159.2z"/>
<path class="st0" d="M53.7,31c-0.1,3.7-0.9,7.3-2.2,10.7c5.2,3.2,14,8.2,14,8.2s0,7-1.9,11.1c2,2.3,4.5,4.7,4.5,4.7
	s29.7-18.4,17.6-44.5C74.4,22.1,63.5,25.4,53.7,31C53.5,34.4,63.3,25.5,53.7,31z"/>
<path class="st0" d="M147.3,83.9c0,0,9.5,12.1,11,16.5c3.9,0.3,7.8-0.3,11.4-1.8c0-3.6-0.3-7.2-0.8-10.8c-0.5,0.2-4.7,2-5.6,1.8
	c-1.4-2.7-4.5-8.5-3.7-10.4c2.8,0.6,5.5,1.4,8.1,2.4c-5.9-25.4-24-46.2-48.3-55.5c-3.4,5.7-6.8,14.7-7,19.4c1.7,0.3,4.2,1,4.2,1
	s5.3-7.4,7.1-8.6c4,1.7,5.1,3.2,5.1,3.2s-7.6,10.4-13.6,14.2c-2.9,0.7-5.9,1.1-8.9,1.4c0,0,5.3,4.3,5.9,6.7
	c-2.9,1.1-5.8,1.8-8.8,2.3l2.3,8.7c0,0,9.9-0.1,11.8-1.8c-0.4-2.5-1.4-4.8-2.8-6.9l7.4-3.2c0,0,6.3,6.6,6.7,7.4
	c5,1.4,14.4,2.1,14.4,2.1v4.1c0,0-7.2,5.8-9.5,6.6c-3.9-1.2-8.5-4-8.5-5c-3.3-0.3-17.3,0.6-18.8,1.7c-1.9,3.3-9.5,18.8-9.5,21.4
	c4.1,6,13,11.4,13,11.4l17.1-2.9c0,0,3.6,21-0.3,33.8c3.4,8.1,6.7,15.4,9.3,19.8c5.7-4,10.9-8.7,15.4-14.1l0.3-1.1l1-0.5
	c1.2-1.6,2.4-3.1,3.5-4.8c2.9-7.5,9.3-24.8,10.5-37.4c-3.9-0.6-7.8-1-11.7-1.1c0,0-11.7-11.8-10.9-18.5
	C145.4,85,146.4,84.5,147.3,83.9z"/>
<path class="st0" d="M75.6,116.4c-1.5-0.3-11.4-6.7-19.5-11.1c-2.3,1-9.2,4.8-9.2,4.8l-7.5-2.9c0,0,1.6-3.1,3.6-6.4
	c-3.1,0-7.7-0.5-9-3.9c-0.9-2.5,0.4-5.3,1.8-7.3s3.8-4,6.6-3.9s4.6,2.5,5.2,5.1l2-2.8c-0.7-1.5-1.5-3-2.5-4.4
	c2.5-7.8,5.9-15.2,10.3-22.1c0,0-6.6-4.4-11.8-7.7c-0.3,1.1-4.9,9.5-4.9,9.5c-3.4-1.9-6.5-4.3-9.2-7c1.9-5.8,8.7-14,8.7-14l-1-0.9
	c-15.4,14-24.5,33.5-25.4,54.3c9,13.4,28.8,17.2,32.1,17.3c-0.5,3.1-4,9.1-9.1,17.2c0.4,4.4,8.5,12.8,18.1,20.7
	c-0.1,3.8-2.2,9.9-4,14.5c5.7,3.5,11.8,6.2,18.1,8.2c26.1-36.1,17.3-55.4,17.3-55.4C82.9,117.8,79.2,117.2,75.6,116.4
	C74.1,116.2,81,117.7,75.6,116.4z"/>
</svg>
