<?xml version="1.0" encoding="utf-8"?>
<!-- Generator: Adobe Illustrator 22.1.0, SVG Export Plug-In . SVG Version: 6.00 Build 0)  -->
<svg version="1.1" id="Calque_1" xmlns="http://www.w3.org/2000/svg" xmlns:xlink="http://www.w3.org/1999/xlink" x="0px" y="0px"
	 viewBox="0 0 273 99" style="enable-background:new 0 0 273 99;" xml:space="preserve">
<style type="text/css">
	.st0{fill:#FFFFFF;}
</style>
<title>world</title>
<g>
	<path class="st0" d="M47.4,10.6c-20.9,0-37.8,16.9-37.8,37.8c0,20.9,17,37.8,37.8,37.8s37.8-17,37.8-37.8c0-18.6-13.6-34.4-32-37.3
		C51.3,10.7,49.4,10.6,47.4,10.6z M70.8,74.1C56.6,87,34.7,86,21.8,71.9S9.9,35.7,24,22.8c1.1-1,2.3-2,3.5-2.8
		c9.5-6.6,21.7-8.1,32.5-3.8l0,0c12.8,5,21.4,17.1,22,30.8l0,0C82.5,57.3,78.4,67.2,70.8,74.1L70.8,74.1z"/>
	<path class="st0" d="M31.2,19.6c0,1.6-0.4,3.1-0.9,4.6c2.2,1.4,6,3.5,6,3.5s0,3-0.8,4.7c0.9,1,1.9,2,1.9,2s12.6-7.8,7.5-18.9
		C40,15.8,35.4,17.2,31.2,19.6C31.1,21,35.3,17.2,31.2,19.6z"/>
	<path class="st0" d="M71,42.1c0,0,4,5.2,4.7,7c1.7,0.1,3.3-0.1,4.9-0.8c0-1.5-0.1-3.1-0.3-4.6c-0.2,0.1-2,0.9-2.4,0.8
		c-0.6-1.1-1.9-3.6-1.6-4.4c1.2,0.3,2.3,0.6,3.4,1c-2.5-10.8-10.2-19.7-20.6-23.6c-1.4,2.4-2.9,6.3-3,8.3c0.7,0.1,1.8,0.4,1.8,0.4
		s2.3-3.1,3-3.7c1.7,0.7,2.2,1.4,2.2,1.4s-3.2,4.4-5.8,6c-1.2,0.3-2.5,0.5-3.8,0.6c0,0,2.3,1.8,2.5,2.9c-1.2,0.5-2.5,0.8-3.7,1
		l1,3.7c0,0,4.2,0,5-0.8c-0.2-1.1-0.6-2-1.2-2.9l3.1-1.4c0,0,2.7,2.8,2.9,3.1c2.1,0.6,6.1,0.9,6.1,0.9v1.7c0,0-3.1,2.5-4,2.8
		c-1.7-0.5-3.6-1.7-3.6-2.1c-1.4-0.1-7.4,0.3-8,0.7c-0.8,1.4-4,8-4,9.1c1.7,2.6,5.5,4.9,5.5,4.9l7.3-1.2c0,0,1.5,8.9-0.1,14.4
		c1.4,3.4,2.9,6.6,4,8.4c2.4-1.7,4.6-3.7,6.6-6l0.1-0.5l0.4-0.2c0.5-0.7,1-1.3,1.5-2c1.2-3.2,4-10.6,4.5-15.9
		c-1.7-0.3-3.3-0.4-5-0.5c0,0-5-5-4.6-7.9C70.2,42.6,70.7,42.3,71,42.1z"/>
	<path class="st0" d="M40.5,55.9c-0.6-0.1-4.9-2.9-8.3-4.7c-1,0.4-3.9,2-3.9,2L25.1,52c0,0,0.7-1.3,1.5-2.7c-1.3,0-3.3-0.2-3.8-1.7
		c-0.4-1.1,0.2-2.3,0.8-3.1c0.6-0.9,1.6-1.7,2.8-1.7s2,1.1,2.2,2.2l0.9-1.2c-0.3-0.6-0.6-1.3-1.1-1.9c1.1-3.3,2.5-6.5,4.4-9.4
		c0,0-2.8-1.9-5-3.3c-0.1,0.5-2.1,4-2.1,4c-1.4-0.8-2.8-1.8-3.9-3c0.8-2.5,3.7-6,3.7-6L25,24c-6.6,6-10.4,14.3-10.8,23.1
		c3.8,5.7,12.3,7.3,13.7,7.4c-0.2,1.3-1.7,3.9-3.9,7.3c0.2,1.9,3.6,5.4,7.7,8.8c0,1.6-0.9,4.2-1.7,6.2c2.4,1.5,5,2.6,7.7,3.5
		c11.1-15.4,7.4-23.6,7.4-23.6C43.6,56.5,42,56.3,40.5,55.9C39.9,55.8,42.8,56.5,40.5,55.9z"/>
</g>
<g>
	<path class="st0" d="M124.1,70.2h-19.3V27.4h19.3v6.9h-11.3v10.2h10.5v6.9h-10.5v11.9h11.3V70.2z"/>
	<path class="st0" d="M146.1,70.2V50.7c0-2.4-0.3-4.1-0.8-5.4c-0.6-1.2-1.5-1.8-2.8-1.8c-1.7,0-2.9,0.8-3.7,2.5
		c-0.8,1.7-1.2,4.5-1.2,8.5v15.7h-7.8V37.6h6.2l0.9,4.2h0.5c0.7-1.5,1.7-2.7,3-3.5c1.3-0.8,2.8-1.3,4.6-1.3c3,0,5.2,1,6.7,3
		c1.5,2,2.2,5,2.2,8.9v21.3C153.9,70.2,146.1,70.2,146.1,70.2z"/>
	<path class="st0" d="M183.8,37.6v4.6l-3.9,0.9c0.8,1.4,1.1,3.1,1.1,5.2c0,3.5-0.9,6.2-2.8,8.1c-1.9,2-4.5,2.9-7.9,2.9
		c-1,0-1.7-0.1-2.2-0.2c-0.4,0.3-0.7,0.7-1.1,1.1s-0.5,0.9-0.5,1.5c0,1.4,1.2,2.1,3.5,2.1h4.7c2.8,0,4.9,0.7,6.4,2.2
		s2.2,3.7,2.2,6.8c0,3.8-1.3,6.7-3.8,8.8s-6.2,3.1-11,3.1c-3.6,0-6.4-0.8-8.3-2.4s-2.9-3.8-2.9-6.7c0-1.8,0.6-3.4,1.7-4.8
		s2.7-2.4,4.6-3c-1-0.4-1.8-1-2.4-1.8s-1-1.8-1-2.9c0-0.7,0.1-1.3,0.3-1.8s0.5-1,0.8-1.5s1.1-1.2,2.2-2.1c-1.3-0.8-2.4-2.1-3.2-3.8
		s-1.2-3.6-1.2-5.7c0-3.6,0.9-6.3,2.8-8.3s4.6-2.9,8.1-2.9c0.7,0,1.4,0.1,2.3,0.2s1.5,0.3,2,0.5L183.8,37.6L183.8,37.6z M164.6,74.9
		c0,1.3,0.4,2.3,1.2,3s2,1,3.5,1c2.4,0,4.1-0.4,5.3-1.3s1.8-2.1,1.8-3.7c0-1.2-0.3-2.1-1-2.6s-1.8-0.8-3.6-0.8H168
		c-1.1,0-1.9,0.4-2.5,1.2S164.6,73.6,164.6,74.9z M167,48.2c0,3.8,1.1,5.8,3.3,5.8c2.1,0,3.2-1.9,3.2-5.8c0-4-1.1-6-3.2-6
		C168.1,42.2,167,44.2,167,48.2z"/>
	<path class="st0" d="M195.5,70.2h-7.8V24.6h7.8V70.2z"/>
	<path class="st0" d="M201.8,29c0-1.3,0.4-2.3,1.1-3.1c0.8-0.8,1.8-1.1,3.1-1.1c1.3,0,2.3,0.4,3,1.1c0.8,0.8,1.1,1.8,1.1,3.1
		c0,1.3-0.4,2.4-1.2,3.1c-0.8,0.7-1.8,1.1-3,1.1c-1.3,0-2.3-0.4-3.1-1.1C202,31.4,201.8,30.4,201.8,29z M209.9,70.2h-7.8V37.6h7.8
		V70.2z"/>
	<path class="st0" d="M234.1,60.6c0,3.2-0.9,5.7-2.8,7.5s-4.6,2.7-8.2,2.7c-3.2,0-5.9-0.6-8-1.9v-6.8c1.1,0.7,2.3,1.4,3.8,1.8
		c1.5,0.4,2.7,0.7,3.8,0.7c1.2,0,2.1-0.3,2.8-0.9c0.7-0.6,1-1.4,1-2.4s-0.3-1.9-1-2.6s-1.9-1.7-3.7-2.7c-2.4-1.4-4.1-2.9-5.1-4.5
		s-1.5-3.5-1.5-5.6c0-2.8,1-5,2.9-6.6s4.5-2.4,7.8-2.4c2.9,0,5.6,0.8,8.2,2.3l-2.5,5.6c-2.1-1.1-3.9-1.7-5.5-1.7
		c-1,0-1.7,0.3-2.2,0.8s-0.7,1.2-0.7,1.9c0,0.9,0.3,1.7,0.9,2.3c0.6,0.7,1.8,1.5,3.4,2.5c2,1.2,3.5,2.3,4.3,3.1
		c0.8,0.9,1.5,1.8,1.9,2.9C233.9,57.9,234.1,59.2,234.1,60.6z"/>
	<path class="st0" d="M255.3,70.2V50.7c0-4.8-1.2-7.2-3.6-7.2c-1.8,0-3.1,0.9-3.8,2.8c-0.7,1.9-1.1,4.6-1.1,8.1v15.7H239V24.6h7.8
		v10.1c0,1.3-0.1,3.6-0.4,7h0.4c1.6-3.2,4-4.8,7.2-4.8c3,0,5.2,1,6.8,3s2.3,5,2.3,8.9v21.3L255.3,70.2L255.3,70.2z"/>
</g>
</svg>
