<?xml version="1.0" encoding="utf-8"?>
<!-- Generator: Adobe Illustrator 22.1.0, SVG Export Plug-In . SVG Version: 6.00 Build 0)  -->
<svg version="1.1" id="Calque_1" xmlns="http://www.w3.org/2000/svg" xmlns:xlink="http://www.w3.org/1999/xlink" x="0px" y="0px"
	 viewBox="0 0 296.1 99" style="enable-background:new 0 0 296.1 99;" xml:space="preserve">
<style type="text/css">
	.st0{fill:#FFFFFF;}
</style>
<title>world</title>
<g>
	<path class="st0" d="M47.4,10.6c-20.9,0-37.8,16.9-37.8,37.8s17,37.8,37.8,37.8s37.8-17,37.8-37.8c0-18.6-13.6-34.4-32-37.3
		C51.3,10.7,49.4,10.6,47.4,10.6z M70.8,74.1C56.6,87,34.7,86,21.8,71.9S9.9,35.7,24,22.8c1.1-1,2.3-2,3.5-2.8
		c9.5-6.6,21.7-8.1,32.5-3.8l0,0c12.8,5,21.4,17.1,22,30.8l0,0C82.5,57.3,78.4,67.2,70.8,74.1L70.8,74.1z"/>
	<path class="st0" d="M31.2,19.6c0,1.6-0.4,3.1-0.9,4.6c2.2,1.4,6,3.5,6,3.5s0,3-0.8,4.7c0.9,1,1.9,2,1.9,2s12.6-7.8,7.5-18.9
		C40,15.8,35.4,17.2,31.2,19.6C31.1,21,35.3,17.2,31.2,19.6z"/>
	<path class="st0" d="M71,42.1c0,0,4,5.2,4.7,7c1.7,0.1,3.3-0.1,4.9-0.8c0-1.5-0.1-3.1-0.3-4.6c-0.2,0.1-2,0.9-2.4,0.8
		c-0.6-1.1-1.9-3.6-1.6-4.4c1.2,0.3,2.3,0.6,3.4,1c-2.5-10.8-10.2-19.7-20.6-23.6c-1.4,2.4-2.9,6.3-3,8.3c0.7,0.1,1.8,0.4,1.8,0.4
		s2.3-3.1,3-3.7c1.7,0.7,2.2,1.4,2.2,1.4s-3.2,4.4-5.8,6c-1.2,0.3-2.5,0.5-3.8,0.6c0,0,2.3,1.8,2.5,2.9c-1.2,0.5-2.5,0.8-3.7,1
		l1,3.7c0,0,4.2,0,5-0.8c-0.2-1.1-0.6-2-1.2-2.9l3.1-1.4c0,0,2.7,2.8,2.9,3.1c2.1,0.6,6.1,0.9,6.1,0.9v1.7c0,0-3.1,2.5-4,2.8
		c-1.7-0.5-3.6-1.7-3.6-2.1c-1.4-0.1-7.4,0.3-8,0.7c-0.8,1.4-4,8-4,9.1c1.7,2.6,5.5,4.9,5.5,4.9l7.3-1.2c0,0,1.5,8.9-0.1,14.4
		c1.4,3.4,2.9,6.6,4,8.4c2.4-1.7,4.6-3.7,6.6-6l0.1-0.5l0.4-0.2c0.5-0.7,1-1.3,1.5-2c1.2-3.2,4-10.6,4.5-15.9
		c-1.7-0.3-3.3-0.4-5-0.5c0,0-5-5-4.6-7.9C70.2,42.6,70.7,42.3,71,42.1z"/>
	<path class="st0" d="M40.5,55.9c-0.6-0.1-4.9-2.9-8.3-4.7c-1,0.4-3.9,2-3.9,2L25.1,52c0,0,0.7-1.3,1.5-2.7c-1.3,0-3.3-0.2-3.8-1.7
		c-0.4-1.1,0.2-2.3,0.8-3.1c0.6-0.9,1.6-1.7,2.8-1.7s2,1.1,2.2,2.2l0.9-1.2c-0.3-0.6-0.6-1.3-1.1-1.9c1.1-3.3,2.5-6.5,4.4-9.4
		c0,0-2.8-1.9-5-3.3c-0.1,0.5-2.1,4-2.1,4c-1.4-0.8-2.8-1.8-3.9-3c0.8-2.5,3.7-6,3.7-6L25,24c-6.6,6-10.4,14.3-10.8,23.1
		c3.8,5.7,12.3,7.3,13.7,7.4c-0.2,1.3-1.7,3.9-3.9,7.3c0.2,1.9,3.6,5.4,7.7,8.8c0,1.6-0.9,4.2-1.7,6.2c2.4,1.5,5,2.6,7.7,3.5
		c11.1-15.4,7.4-23.6,7.4-23.6C43.6,56.5,42,56.3,40.5,55.9C39.9,55.8,42.8,56.5,40.5,55.9z"/>
</g>
<g>
	<path class="st0" d="M112.2,69.9h-7.9V27.1h19.2V34h-11.3v11.9h10.5v6.9h-10.5V69.9z"/>
	<path class="st0" d="M142.3,36.7c1,0,1.9,0.1,2.8,0.4l-0.9,7.6c-0.5-0.2-1.3-0.3-2.1-0.3c-1.9,0-3.3,0.7-4.4,2.2s-1.5,3.7-1.5,6.5
		v16.8h-7.8V37.3h6.4l0.9,5.1h0.3c0.9-2.1,1.8-3.5,2.8-4.4S141,36.7,142.3,36.7z"/>
	<path class="st0" d="M164.6,69.9l-1.6-4.5h-0.2c-1.2,1.9-2.3,3.2-3.6,4s-2.8,1.1-4.7,1.1c-2.4,0-4.3-0.9-5.7-2.7s-2.1-4.3-2.1-7.5
		c0-3.4,0.9-6,2.8-7.7s4.7-2.6,8.5-2.8l4.3-0.2v-2.3c0-3-1.3-4.6-4-4.6c-2,0-4.2,0.8-6.7,2.3l-2.7-5.4c3.2-2.1,6.8-3.1,10.6-3.1
		c3.5,0,6.1,1,7.9,3s2.7,4.8,2.7,8.4v21.9L164.6,69.9L164.6,69.9z M157.8,64.4c1.4,0,2.6-0.6,3.4-1.9s1.3-3,1.3-5.1v-2.8l-2.4,0.1
		c-1.8,0.1-3.1,0.6-3.9,1.5c-0.8,0.9-1.2,2.3-1.2,4.1C155,63.1,155.9,64.4,157.8,64.4z"/>
	<path class="st0" d="M192.9,69.9V50.5c0-2.4-0.3-4.1-0.8-5.4c-0.6-1.2-1.5-1.8-2.8-1.8c-1.7,0-2.9,0.8-3.7,2.5s-1.2,4.5-1.2,8.5V70
		h-7.8V37.3h6.2l0.9,4.2h0.5c0.7-1.5,1.7-2.7,3-3.5s2.8-1.3,4.6-1.3c3,0,5.2,1,6.7,3s2.2,5,2.2,8.9v21.3
		C200.7,69.9,192.9,69.9,192.9,69.9z"/>
	<path class="st0" d="M217.8,70.5c-3.9,0-6.8-1.4-8.9-4.2s-3-7-3-12.5c0-5.7,1-10,2.9-12.9c1.9-2.8,4.9-4.2,8.9-4.2
		c1.2,0,2.5,0.2,3.8,0.5s2.5,0.9,3.6,1.5l-2.2,6.1c-1.6-1-3.1-1.4-4.3-1.4c-1.7,0-2.9,0.9-3.6,2.6s-1.1,4.3-1.1,7.8
		c0,3.4,0.4,5.9,1.1,7.6s1.9,2.5,3.5,2.5c2,0,4-0.7,6.1-2.1v6.9C222.5,69.9,220.3,70.5,217.8,70.5z M222.5,77.5c0,2.1-0.7,3.7-2.1,5
		s-3.5,1.8-6.4,1.8c-1.4,0-2.7-0.2-3.8-0.6v-4.5c1.2,0.3,2.4,0.5,3.5,0.5c1.7,0,2.6-0.6,2.6-1.9c0-1.6-1.5-2.7-4.6-3.2L214,70h5.1
		l-1.1,2.2c1.3,0.3,2.4,0.9,3.3,1.8S222.5,76.1,222.5,77.5z"/>
	<path class="st0" d="M245.3,69.9l-1.6-4.5h-0.2c-1.2,1.9-2.3,3.2-3.6,4s-2.8,1.1-4.7,1.1c-2.4,0-4.3-0.9-5.7-2.7s-2.1-4.3-2.1-7.5
		c0-3.4,0.9-6,2.8-7.7s4.7-2.6,8.5-2.8l4.3-0.2v-2.3c0-3-1.3-4.6-4-4.6c-2,0-4.2,0.8-6.7,2.3l-2.7-5.4c3.2-2.1,6.8-3.1,10.6-3.1
		c3.5,0,6.1,1,7.9,3s2.7,4.8,2.7,8.4v21.9L245.3,69.9L245.3,69.9z M238.5,64.4c1.4,0,2.6-0.6,3.4-1.9s1.3-3,1.3-5.1v-2.8l-2.4,0.1
		c-1.8,0.1-3.1,0.6-3.9,1.5s-1.2,2.3-1.2,4.1C235.6,63.1,236.6,64.4,238.5,64.4z"/>
	<path class="st0" d="M257,28.8c0-1.3,0.4-2.3,1.1-3.1c0.8-0.8,1.8-1.1,3.1-1.1c1.3,0,2.3,0.4,3,1.1c0.8,0.8,1.1,1.8,1.1,3.1
		c0,1.3-0.4,2.4-1.2,3.1c-0.8,0.7-1.8,1.1-3,1.1c-1.3,0-2.3-0.4-3.1-1.1C257.2,31.2,257,30.1,257,28.8z M265.1,69.9h-7.8V37.3h7.8
		V69.9z"/>
	<path class="st0" d="M289.3,60.4c0,3.2-0.9,5.7-2.8,7.5s-4.6,2.7-8.2,2.7c-3.2,0-5.9-0.6-8-1.9v-6.8c1.1,0.7,2.3,1.4,3.8,1.8
		s2.7,0.7,3.8,0.7c1.2,0,2.1-0.3,2.8-0.9s1-1.4,1-2.4s-0.3-1.9-1-2.6s-1.9-1.7-3.7-2.7c-2.4-1.4-4.1-2.9-5.1-4.5s-1.5-3.5-1.5-5.6
		c0-2.8,1-5,2.9-6.6s4.5-2.4,7.8-2.4c2.9,0,5.6,0.8,8.2,2.3l-2.5,5.6c-2.1-1.1-3.9-1.7-5.5-1.7c-1,0-1.7,0.3-2.2,0.8
		s-0.7,1.2-0.7,1.9c0,0.9,0.3,1.7,0.9,2.3c0.6,0.7,1.8,1.5,3.4,2.5c2,1.2,3.5,2.3,4.3,3.1c0.8,0.9,1.5,1.8,1.9,2.9
		C289.1,57.6,289.3,58.9,289.3,60.4z"/>
</g>
</svg>
