<svg id="Calque_1" data-name="Calque 1" xmlns="http://www.w3.org/2000/svg" viewBox="0 0 301 99"><defs><style>.cls-1{fill:#fff;}</style></defs><title>mail</title><path class="cls-1" d="M97.7,83.1H18.2A12.5,12.5,0,0,1,5.7,70.6V27.3A12.5,12.5,0,0,1,18.2,14.8H97.7a12.5,12.5,0,0,1,12.5,12.5V70.6A12.5,12.5,0,0,1,97.7,83.1ZM18.2,20.6a6.7,6.7,0,0,0-6.7,6.7V70.6a6.7,6.7,0,0,0,6.7,6.7H97.7a6.7,6.7,0,0,0,6.7-6.7V27.3a6.7,6.7,0,0,0-6.7-6.7Z"/><polygon class="cls-1" points="57 55.5 19.5 34.9 20.8 32.6 57.5 52.9 94.4 32.7 95.6 35 58.1 55.5 57 55.5"/><path class="cls-1" d="M135.1,34.4c-2.3,0-4.1,1.3-5.4,4s-2,6.4-2,11.2c0,9.9,2.6,14.9,7.8,14.9a13.61,13.61,0,0,0,7.1-2.2v7.1a14.21,14.21,0,0,1-8,2.1,12.52,12.52,0,0,1-11.1-5.8c-2.6-3.9-3.9-9.2-3.9-16.2s1.3-12.4,4-16.3a12.75,12.75,0,0,1,11.1-5.8,14.69,14.69,0,0,1,9.1,2.9l-2.6,6.5a26.06,26.06,0,0,0-2.8-1.7A7.25,7.25,0,0,0,135.1,34.4Z"/><path class="cls-1" d="M172.4,54.5c0,5.4-1.1,9.5-3.4,12.5a11.11,11.11,0,0,1-9.3,4.5,10.83,10.83,0,0,1-6.6-2.1,12.8,12.8,0,0,1-4.4-5.9,24.92,24.92,0,0,1-1.6-9c0-5.3,1.1-9.4,3.4-12.4a11.68,11.68,0,0,1,18.5.1C171.3,45.2,172.4,49.3,172.4,54.5Zm-17.3,0a21.29,21.29,0,0,0,1.1,7.7,3.71,3.71,0,0,0,3.6,2.6c3.1,0,4.7-3.4,4.7-10.3a21.29,21.29,0,0,0-1.1-7.7,3.62,3.62,0,0,0-3.6-2.5,3.8,3.8,0,0,0-3.6,2.5C155.4,48.5,155.1,51.1,155.1,54.5Z"/><path class="cls-1" d="M194.1,70.9V51.4a14.6,14.6,0,0,0-.8-5.4,2.83,2.83,0,0,0-2.8-1.8,3.83,3.83,0,0,0-3.7,2.5c-.8,1.7-1.2,4.5-1.2,8.5V70.9h-7.8V38.3H184l.9,4.2h.5a7.94,7.94,0,0,1,3-3.5,8.56,8.56,0,0,1,4.6-1.3,7.8,7.8,0,0,1,6.7,3c1.5,2,2.2,5,2.2,8.9V70.9Z"/><path class="cls-1" d="M219.6,64.9a9.31,9.31,0,0,0,3.5-.8v6.1a10,10,0,0,1-5.7,1.3c-2.8,0-4.9-.8-6.3-2.5s-2.1-4.2-2.1-7.6v-17h-3V41l4.1-2.8,2-6.9h5v7H223v6.2h-6V61.7C217,63.8,217.9,64.9,219.6,64.9Z"/><path class="cls-1" d="M243.7,70.9l-1.6-4.5H242a11.94,11.94,0,0,1-3.6,4,8.62,8.62,0,0,1-4.7,1.1,6.84,6.84,0,0,1-5.7-2.7q-2.1-2.7-2.1-7.5c0-3.4.9-6,2.8-7.7s4.7-2.6,8.5-2.8l4.3-.2V48.3c0-3-1.3-4.6-4-4.6a13.42,13.42,0,0,0-6.7,2.3l-2.7-5.4a19,19,0,0,1,10.6-3.1c3.5,0,6.1,1,7.9,3s2.7,4.8,2.7,8.4V70.8h-5.6ZM237,65.4a3.81,3.81,0,0,0,3.4-1.9,9.61,9.61,0,0,0,1.3-5.1V55.6l-2.4.1a5.41,5.41,0,0,0-3.9,1.5,6.08,6.08,0,0,0-1.2,4.1C234.1,64,235.1,65.4,237,65.4Z"/><path class="cls-1" d="M266.5,71.5a10.39,10.39,0,0,1-8.9-4.2c-2.1-2.8-3-7-3-12.5,0-5.7,1-10,2.9-12.9s4.9-4.2,8.9-4.2a17.26,17.26,0,0,1,3.8.5,14.39,14.39,0,0,1,3.6,1.5l-2.2,6.1a8.29,8.29,0,0,0-4.3-1.4,3.71,3.71,0,0,0-3.6,2.6,21.52,21.52,0,0,0-1.1,7.8,20.68,20.68,0,0,0,1.1,7.6,3.59,3.59,0,0,0,3.5,2.5,10.94,10.94,0,0,0,6.1-2.1v6.9A14.06,14.06,0,0,1,266.5,71.5Z"/><path class="cls-1" d="M289.4,64.9a9.31,9.31,0,0,0,3.5-.8v6.1a10,10,0,0,1-5.7,1.3c-2.8,0-4.9-.8-6.3-2.5s-2.1-4.2-2.1-7.6v-17h-3.2V41l4.1-2.8,2-6.9h5v7h5.9v6.2h-5.9V61.7C286.7,63.8,287.6,64.9,289.4,64.9Z"/></svg>