<?xml version="1.0" encoding="utf-8"?>
<!-- Generator: Adobe Illustrator 22.1.0, SVG Export Plug-In . SVG Version: 6.00 Build 0)  -->
<svg version="1.1" id="Calque_1" xmlns="http://www.w3.org/2000/svg" xmlns:xlink="http://www.w3.org/1999/xlink" x="0px" y="0px"
	 viewBox="0 0 301 99" style="enable-background:new 0 0 301 99;" xml:space="preserve">
<style type="text/css">
	.st0{fill:#FFFFFF;}
</style>
<title>world</title>
<g>
	<path class="st0" d="M97.7,83.1H18.2c-6.9,0-12.5-5.6-12.5-12.5V27.3c0-6.9,5.6-12.5,12.5-12.5h79.5c6.9,0,12.5,5.6,12.5,12.5v43.3
		C110.2,77.5,104.6,83.1,97.7,83.1z M18.2,20.6c-3.7,0-6.7,3-6.7,6.7v43.3c0,3.7,3,6.7,6.7,6.7h79.5c3.7,0,6.7-3,6.7-6.7V27.3
		c0-3.7-3-6.7-6.7-6.7L18.2,20.6z"/>
	<polygon class="st0" points="57,55.5 19.5,34.9 20.8,32.6 57.5,52.9 94.4,32.7 95.6,35 58.1,55.5 	"/>
</g>
<g>
	<path class="st0" d="M135.1,34.4c-2.3,0-4.1,1.3-5.4,4c-1.3,2.7-2,6.4-2,11.2c0,9.9,2.6,14.9,7.8,14.9c2.3,0,4.6-0.7,7.1-2.2v7.1
		c-2.1,1.4-4.8,2.1-8,2.1c-4.8,0-8.5-1.9-11.1-5.8s-3.9-9.2-3.9-16.2s1.3-12.4,4-16.3c2.7-3.9,6.4-5.8,11.1-5.8
		c1.6,0,3.1,0.2,4.5,0.6c1.4,0.4,3,1.2,4.6,2.3l-2.6,6.5c-0.9-0.6-1.8-1.2-2.8-1.7S136.3,34.4,135.1,34.4z"/>
	<path class="st0" d="M172.4,54.5c0,5.4-1.1,9.5-3.4,12.5s-5.4,4.5-9.3,4.5c-2.5,0-4.7-0.7-6.6-2.1s-3.4-3.3-4.4-5.9
		c-1-2.6-1.6-5.6-1.6-9c0-5.3,1.1-9.4,3.4-12.4c2.2-3,5.4-4.5,9.3-4.5c3.8,0,6.9,1.5,9.2,4.6C171.3,45.2,172.4,49.3,172.4,54.5z
		 M155.1,54.5c0,3.4,0.4,6,1.1,7.7s1.9,2.6,3.6,2.6c3.1,0,4.7-3.4,4.7-10.3c0-3.4-0.4-6-1.1-7.7s-1.9-2.5-3.6-2.5
		c-1.6,0-2.8,0.8-3.6,2.5S155.1,51.1,155.1,54.5z"/>
	<path class="st0" d="M194.1,70.9V51.4c0-2.4-0.3-4.2-0.8-5.4s-1.5-1.8-2.8-1.8c-1.7,0-2.9,0.8-3.7,2.5s-1.2,4.5-1.2,8.5v15.7h-7.8
		V38.3h6.2l0.9,4.2h0.5c0.7-1.5,1.7-2.7,3-3.5s2.8-1.3,4.6-1.3c3,0,5.2,1,6.7,3c1.5,2,2.2,5,2.2,8.9v21.3H194.1z"/>
	<path class="st0" d="M219.6,64.9c1.1,0,2.3-0.3,3.5-0.8v6.1c-1.3,0.9-3.2,1.3-5.7,1.3c-2.8,0-4.9-0.8-6.3-2.5s-2.1-4.2-2.1-7.6
		V44.4H206V41l4.1-2.8l2-6.9h5v7h5.9v6.2H217v17.2C217,63.8,217.9,64.9,219.6,64.9z"/>
	<path class="st0" d="M243.7,70.9l-1.6-4.5H242c-1.2,1.9-2.3,3.2-3.6,4s-2.8,1.1-4.7,1.1c-2.4,0-4.3-0.9-5.7-2.7s-2.1-4.3-2.1-7.5
		c0-3.4,0.9-6,2.8-7.7s4.7-2.6,8.5-2.8l4.3-0.2v-2.3c0-3-1.3-4.6-4-4.6c-2,0-4.2,0.8-6.7,2.3l-2.7-5.4c3.2-2.1,6.8-3.1,10.6-3.1
		c3.5,0,6.1,1,7.9,3c1.8,2,2.7,4.8,2.7,8.4v21.9H243.7z M237,65.4c1.4,0,2.6-0.6,3.4-1.9c0.8-1.3,1.3-3,1.3-5.1v-2.8l-2.4,0.1
		c-1.8,0.1-3.1,0.6-3.9,1.5s-1.2,2.3-1.2,4.1C234.1,64,235.1,65.4,237,65.4z"/>
	<path class="st0" d="M266.5,71.5c-3.9,0-6.8-1.4-8.9-4.2s-3-7-3-12.5c0-5.7,1-10,2.9-12.9c1.9-2.8,4.9-4.2,8.9-4.2
		c1.2,0,2.5,0.2,3.8,0.5s2.5,0.9,3.6,1.5l-2.2,6.1c-1.6-1-3.1-1.4-4.3-1.4c-1.7,0-2.9,0.9-3.6,2.6s-1.1,4.3-1.1,7.8
		c0,3.4,0.4,5.9,1.1,7.6s1.9,2.5,3.5,2.5c2,0,4-0.7,6.1-2.1v6.9C271.3,70.8,269,71.5,266.5,71.5z"/>
	<path class="st0" d="M289.4,64.9c1.1,0,2.3-0.3,3.5-0.8v6.1c-1.3,0.9-3.2,1.3-5.7,1.3c-2.8,0-4.9-0.8-6.3-2.5s-2.1-4.2-2.1-7.6
		V44.4h-3.2V41l4.1-2.8l2-6.9h5v7h5.9v6.2h-5.9v17.2C286.7,63.8,287.6,64.9,289.4,64.9z"/>
</g>
</svg>
