<svg id="Calque_1" data-name="Calque 1" xmlns="http://www.w3.org/2000/svg" viewBox="0 0 811.67 57.67"><defs><style>.cls-1{fill:#423229;}</style></defs><title>titre_kitdesurvie</title><path class="cls-1" d="M24.38,41h-6.8L12,26.35,9.4,28.91V41H3V6.73H9.4v17l2.23-5.14L17.46,6.73h6.82L16.36,21.57Z"/><path class="cls-1" d="M26.81,8.07a3.32,3.32,0,0,1,.9-2.45,3.44,3.44,0,0,1,2.52-.9,3.32,3.32,0,0,1,2.44.9,3.29,3.29,0,0,1,.92,2.45,3.23,3.23,0,0,1-.94,2.47,3.38,3.38,0,0,1-2.42.88,3.47,3.47,0,0,1-2.48-.88A3.23,3.23,0,0,1,26.81,8.07ZM33.3,41H27.07V14.89H33.3Z"/><path class="cls-1" d="M47.72,36.2a7.14,7.14,0,0,0,2.83-.66v4.87A8,8,0,0,1,46,41.47a6.09,6.09,0,0,1-5-2q-1.65-2-1.65-6.08V19.84H36.77V17.05L40,14.8l1.6-5.53h4v5.62h4.73v4.95H45.61V33.57C45.61,35.32,46.31,36.2,47.72,36.2Z"/><path class="cls-1" d="M72.94,41.47a6.37,6.37,0,0,1-5.7-3.56Q65.16,34.34,65.16,28t2-10c1.35-2.41,3.23-3.61,5.62-3.61a5.32,5.32,0,0,1,3.08.88,7.85,7.85,0,0,1,2.4,3h.38c-.19-2.37-.28-4-.28-5V4.53h6.23V41H80l-1-3.4h-.21Q76.74,41.47,72.94,41.47Zm2-5.27a2.65,2.65,0,0,0,2.53-1.59c.54-1,.82-3,.87-5.75V28a17.68,17.68,0,0,0-.81-6.4,2.75,2.75,0,0,0-2.66-1.85c-1.15,0-2,.71-2.52,2.12a18.78,18.78,0,0,0-.78,6.18,17.33,17.33,0,0,0,.8,6.08A2.71,2.71,0,0,0,75,36.2Z"/><path class="cls-1" d="M99.52,41.47A9.43,9.43,0,0,1,91.79,38Q89,34.51,89,28.13T91.52,18a8.24,8.24,0,0,1,7.13-3.63,8.14,8.14,0,0,1,6.73,3.1c1.64,2.07,2.46,5,2.46,8.71v3.33H95.3a8.43,8.43,0,0,0,1.43,5.19,4.53,4.53,0,0,0,3.75,1.7,12.09,12.09,0,0,0,6.23-1.9v5.13A13.64,13.64,0,0,1,99.52,41.47ZM98.6,19.2a2.56,2.56,0,0,0-2.2,1.42,9.49,9.49,0,0,0-1,4.4h6.33a9.39,9.39,0,0,0-.87-4.34A2.52,2.52,0,0,0,98.6,19.2Z"/><path class="cls-1" d="M137.84,33.36a7.86,7.86,0,0,1-2.24,6q-2.23,2.15-6.6,2.15A12.3,12.3,0,0,1,122.6,40V34.53a11.9,11.9,0,0,0,3,1.48,9.6,9.6,0,0,0,3,.58,3.08,3.08,0,0,0,2.21-.71,2.48,2.48,0,0,0,.77-1.89,3,3,0,0,0-.8-2.08,13.4,13.4,0,0,0-2.93-2.18,12.13,12.13,0,0,1-4.07-3.6,8.15,8.15,0,0,1-1.23-4.51,6.57,6.57,0,0,1,2.29-5.28,9.39,9.39,0,0,1,6.27-1.94,12.58,12.58,0,0,1,6.54,1.83l-2,4.47a9.64,9.64,0,0,0-4.41-1.36,2.32,2.32,0,0,0-1.79.64,2.14,2.14,0,0,0-.6,1.54,2.74,2.74,0,0,0,.74,1.88,12.75,12.75,0,0,0,2.75,2A16.9,16.9,0,0,1,135.77,28a7.29,7.29,0,0,1,1.53,2.34A8,8,0,0,1,137.84,33.36Z"/><path class="cls-1" d="M155.88,41l-.77-3.35h-.33a6.63,6.63,0,0,1-6.14,3.82,6.26,6.26,0,0,1-5.32-2.39q-1.8-2.4-1.8-7.15v-17h6.3V30.43a10.62,10.62,0,0,0,.68,4.31,2.29,2.29,0,0,0,2.2,1.46,3.07,3.07,0,0,0,2.94-2q.93-2,.93-6.77V14.89h6.31V41Z"/><path class="cls-1" d="M177.23,14.4a7.45,7.45,0,0,1,2.25.35l-.72,6.05a5.09,5.09,0,0,0-1.71-.24,4,4,0,0,0-3.5,1.8,9.27,9.27,0,0,0-1.21,5.21V41H166.1V14.89h5.13l.71,4.08h.21a9.62,9.62,0,0,1,2.25-3.52A4.21,4.21,0,0,1,177.23,14.4Z"/><path class="cls-1" d="M186.45,41l-6.82-26.11h6.46L189.42,30c.14.7.31,1.73.51,3.08s.31,2.32.36,2.92h.09c0-.47.08-1.14.2-2s.24-1.68.37-2.41,1.32-6.3,3.6-16.69H201L194.18,41Z"/><path class="cls-1" d="M203.46,8.07a3.32,3.32,0,0,1,.9-2.45,3.41,3.41,0,0,1,2.52-.9,3.32,3.32,0,0,1,2.44.9,3.28,3.28,0,0,1,.91,2.45,3.23,3.23,0,0,1-.93,2.47,3.38,3.38,0,0,1-2.42.88,3.45,3.45,0,0,1-2.48-.88A3.2,3.2,0,0,1,203.46,8.07ZM210,41h-6.23V14.89H210Z"/><path class="cls-1" d="M224.93,41.47A9.4,9.4,0,0,1,217.21,38q-2.84-3.48-2.83-9.86T216.94,18a8.22,8.22,0,0,1,7.12-3.63,8.11,8.11,0,0,1,6.73,3.1c1.64,2.07,2.46,5,2.46,8.71v3.33H220.71a8.5,8.5,0,0,0,1.43,5.19,4.56,4.56,0,0,0,3.75,1.7,12.15,12.15,0,0,0,6.24-1.9v5.13A13.65,13.65,0,0,1,224.93,41.47ZM224,19.2a2.57,2.57,0,0,0-2.21,1.42,9.62,9.62,0,0,0-1,4.4h6.33a9.53,9.53,0,0,0-.86-4.34A2.52,2.52,0,0,0,224,19.2Z"/><path class="cls-1" d="M260.88,41.47a5.91,5.91,0,0,1-3-.76A7.35,7.35,0,0,1,255.47,38h-.33c.25,2.13.38,3.41.38,3.85V52.53h-6.29V14.89h4.83l1.08,3.4h.28q2-3.88,5.65-3.89a6.18,6.18,0,0,1,5.58,3.53q2,3.53,2,10t-2.08,10Q264.5,41.48,260.88,41.47ZM259,19.7a2.73,2.73,0,0,0-2.64,1.69,14.8,14.8,0,0,0-.85,5.64v.82a17.46,17.46,0,0,0,.82,6.28,2.8,2.8,0,0,0,2.72,2c2.19,0,3.28-2.76,3.28-8.3a17.28,17.28,0,0,0-.81-6.09A2.69,2.69,0,0,0,259,19.7Z"/><path class="cls-1" d="M292.38,27.9q0,6.42-2.72,10a8.83,8.83,0,0,1-7.45,3.58,8.93,8.93,0,0,1-5.3-1.64,10.38,10.38,0,0,1-3.53-4.72,19.19,19.19,0,0,1-1.25-7.21c0-4.24.9-7.54,2.7-9.93a8.84,8.84,0,0,1,7.47-3.57A8.71,8.71,0,0,1,289.65,18Q292.38,21.69,292.38,27.9Zm-13.87,0a16.26,16.26,0,0,0,.89,6.16,3,3,0,0,0,2.86,2.09q3.75,0,3.75-8.25a15.85,15.85,0,0,0-.9-6.13,3,3,0,0,0-5.71,0A15.88,15.88,0,0,0,278.51,27.9Z"/><path class="cls-1" d="M310.88,41l-.78-3.35h-.33a6.63,6.63,0,0,1-6.14,3.82,6.27,6.27,0,0,1-5.32-2.39q-1.8-2.4-1.8-7.15v-17h6.3V30.43a10.62,10.62,0,0,0,.68,4.31,2.3,2.3,0,0,0,2.21,1.46,3.09,3.09,0,0,0,2.94-2q.92-2,.92-6.77V14.89h6.31V41Z"/><path class="cls-1" d="M332.23,14.4a7.55,7.55,0,0,1,2.25.35l-.73,6.05a5.09,5.09,0,0,0-1.71-.24,4,4,0,0,0-3.49,1.8,9.18,9.18,0,0,0-1.22,5.21V41h-6.24V14.89h5.14l.7,4.08h.21a9.62,9.62,0,0,1,2.25-3.52A4.21,4.21,0,0,1,332.23,14.4Z"/><path class="cls-1" d="M355.36,41h-6.23V4.53h6.23Z"/><path class="cls-1" d="M370.22,41.47A9.4,9.4,0,0,1,362.5,38q-2.83-3.48-2.83-9.86T362.23,18a8.21,8.21,0,0,1,7.12-3.63,8.11,8.11,0,0,1,6.73,3.1c1.64,2.07,2.46,5,2.46,8.71v3.33H366a8.5,8.5,0,0,0,1.43,5.19,4.56,4.56,0,0,0,3.75,1.7,12.09,12.09,0,0,0,6.23-1.9v5.13A13.61,13.61,0,0,1,370.22,41.47ZM369.3,19.2a2.56,2.56,0,0,0-2.2,1.42,9.62,9.62,0,0,0-1,4.4h6.33a9.39,9.39,0,0,0-.87-4.34A2.49,2.49,0,0,0,369.3,19.2Z"/><path class="cls-1" d="M396.68,33.36a7.86,7.86,0,0,1-2.24,6q-2.24,2.15-6.6,2.15A12.26,12.26,0,0,1,381.45,40V34.53a11.73,11.73,0,0,0,3,1.48,9.6,9.6,0,0,0,3,.58,3.12,3.12,0,0,0,2.22-.71,2.51,2.51,0,0,0,.76-1.89,3,3,0,0,0-.8-2.08,13.4,13.4,0,0,0-2.93-2.18,12.09,12.09,0,0,1-4.06-3.6,8.15,8.15,0,0,1-1.23-4.51,6.59,6.59,0,0,1,2.28-5.28A9.39,9.39,0,0,1,390,14.4a12.58,12.58,0,0,1,6.54,1.83l-2,4.47a9.6,9.6,0,0,0-4.41-1.36,2.33,2.33,0,0,0-1.79.64,2.14,2.14,0,0,0-.6,1.54,2.74,2.74,0,0,0,.74,1.88,12.61,12.61,0,0,0,2.76,2A17.51,17.51,0,0,1,394.62,28a7.44,7.44,0,0,1,1.52,2.34A8,8,0,0,1,396.68,33.36Z"/><path class="cls-1" d="M425.48,41V25.44a10.41,10.41,0,0,0-.68-4.29,2.27,2.27,0,0,0-2.2-1.45,3.08,3.08,0,0,0-3,2q-.94,2-.94,6.76V41h-6.23V14.89h4.94l.75,3.35h.4a6.44,6.44,0,0,1,6.09-3.84A6.16,6.16,0,0,1,430,16.84c1.18,1.62,1.77,4,1.77,7.12V41Z"/><path class="cls-1" d="M456.14,27.9q0,6.42-2.72,10a9.48,9.48,0,0,1-12.75,1.94,10.46,10.46,0,0,1-3.54-4.72,19.2,19.2,0,0,1-1.24-7.21c0-4.24.9-7.54,2.7-9.93a8.83,8.83,0,0,1,7.47-3.57A8.71,8.71,0,0,1,453.41,18Q456.14,21.69,456.14,27.9Zm-13.87,0a16.26,16.26,0,0,0,.89,6.16A3,3,0,0,0,446,36.15q3.75,0,3.75-8.25a15.82,15.82,0,0,0-.91-6.13,3,3,0,0,0-5.7,0A15.88,15.88,0,0,0,442.27,27.9Z"/><path class="cls-1" d="M474.63,41l-.77-3.35h-.33a6.63,6.63,0,0,1-6.14,3.82,6.26,6.26,0,0,1-5.32-2.39q-1.8-2.4-1.8-7.15v-17h6.3V30.43a10.62,10.62,0,0,0,.68,4.31,2.29,2.29,0,0,0,2.2,1.46,3.07,3.07,0,0,0,2.94-2q.93-2,.93-6.77V14.89h6.31V41Z"/><path class="cls-1" d="M489,41,482.2,14.89h6.47L492,30c.14.7.31,1.73.5,3.08s.32,2.32.37,2.92H493c0-.47.08-1.14.2-2s.24-1.68.36-2.41,1.33-6.3,3.61-16.69h6.47L496.76,41Z"/><path class="cls-1" d="M515.88,41.47A9.41,9.41,0,0,1,508.16,38q-2.82-3.48-2.82-9.86T507.89,18A8.22,8.22,0,0,1,515,14.4a8.11,8.11,0,0,1,6.72,3.1c1.64,2.07,2.46,5,2.46,8.71v3.33H511.66a8.56,8.56,0,0,0,1.43,5.19,4.56,4.56,0,0,0,3.75,1.7,12.12,12.12,0,0,0,6.24-1.9v5.13A13.65,13.65,0,0,1,515.88,41.47ZM515,19.2a2.54,2.54,0,0,0-2.2,1.42,9.49,9.49,0,0,0-1,4.4h6.33a9.52,9.52,0,0,0-.87-4.34A2.52,2.52,0,0,0,515,19.2Z"/><path class="cls-1" d="M541.13,41l-1.25-3.56h-.14a8.8,8.8,0,0,1-2.86,3.16,7.21,7.21,0,0,1-3.72.87,5.39,5.39,0,0,1-4.54-2.16,9.64,9.64,0,0,1-1.65-6q0-4.13,2.26-6.13T536,25l3.47-.14V23q0-3.64-3.16-3.65a10.79,10.79,0,0,0-5.39,1.83l-2.16-4.32a15.51,15.51,0,0,1,8.46-2.46,8.11,8.11,0,0,1,6.32,2.38,9.68,9.68,0,0,1,2.17,6.74V41Zm-5.42-4.41a3.14,3.14,0,0,0,2.73-1.53,7.29,7.29,0,0,0,1-4.09v-2.2l-1.92.09a4.35,4.35,0,0,0-3.13,1.22,4.77,4.77,0,0,0-1,3.28C533.41,35.52,534.18,36.59,535.71,36.59Z"/><path class="cls-1" d="M564.84,41l-.77-3.35h-.33a6.63,6.63,0,0,1-6.14,3.82,6.26,6.26,0,0,1-5.32-2.39q-1.8-2.4-1.8-7.15v-17h6.3V30.43a10.62,10.62,0,0,0,.68,4.31,2.29,2.29,0,0,0,2.2,1.46,3.09,3.09,0,0,0,3-2q.92-2,.92-6.77V14.89h6.31V41Z"/><path class="cls-1" d="M579.56,27.66l-6.51-12.77h6.47l3.46,8,3.22-8h6.42l-6.57,12.77L592.9,41h-6.52l-3.7-8.34L579.23,41h-6.49Z"/><path class="cls-1" d="M617.39,41.47A9.41,9.41,0,0,1,609.67,38q-2.82-3.48-2.83-9.86T609.4,18a8.22,8.22,0,0,1,7.12-3.63,8.11,8.11,0,0,1,6.73,3.1c1.64,2.07,2.46,5,2.46,8.71v3.33H613.17a8.56,8.56,0,0,0,1.43,5.19,4.56,4.56,0,0,0,3.75,1.7,12.15,12.15,0,0,0,6.24-1.9v5.13A13.65,13.65,0,0,1,617.39,41.47Zm-4.12-29.56v-.63a28.33,28.33,0,0,0,2.22-3.54c.85-1.53,1.45-2.7,1.81-3.51h7.45v.49A18.4,18.4,0,0,1,622,8a55.64,55.64,0,0,1-4.31,4Zm3.21,7.29a2.57,2.57,0,0,0-2.21,1.42,9.63,9.63,0,0,0-1,4.4h6.32a9.53,9.53,0,0,0-.86-4.34A2.52,2.52,0,0,0,616.48,19.2Z"/><path class="cls-1" d="M638.91,36.2a7.14,7.14,0,0,0,2.83-.66v4.87a8,8,0,0,1-4.57,1.06,6.12,6.12,0,0,1-5-2q-1.64-2-1.64-6.08V19.84H628V17.05l3.26-2.25,1.59-5.53h4v5.62h4.73v4.95H636.8V33.57C636.8,35.32,637.5,36.2,638.91,36.2Z"/><path class="cls-1" d="M659.51,41l-.78-3.35h-.32a6.75,6.75,0,0,1-2.48,2.8,6.68,6.68,0,0,1-3.66,1A6.25,6.25,0,0,1,647,39.08q-1.82-2.4-1.81-7.15v-17h6.31V30.43a10.45,10.45,0,0,0,.68,4.31,2.28,2.28,0,0,0,2.2,1.46,3.09,3.09,0,0,0,2.94-2q.93-2,.93-6.77V14.89h6.3V41Z"/><path class="cls-1" d="M676.59,41.47a6.37,6.37,0,0,1-5.69-3.56q-2.08-3.57-2.09-9.92t2-10q2-3.62,5.63-3.61a5.36,5.36,0,0,1,3.08.88,7.85,7.85,0,0,1,2.4,3h.38c-.19-2.37-.29-4-.29-5V4.53h6.24V41h-4.64l-1.06-3.4h-.21C681.05,40.18,679.13,41.47,676.59,41.47Zm2-5.27a2.65,2.65,0,0,0,2.53-1.59,14.83,14.83,0,0,0,.87-5.75V28a17.68,17.68,0,0,0-.81-6.4,2.75,2.75,0,0,0-2.66-1.85c-1.16,0-2,.71-2.52,2.12a18.73,18.73,0,0,0-.79,6.18,17.57,17.57,0,0,0,.8,6.08A2.71,2.71,0,0,0,678.61,36.2Z"/><path class="cls-1" d="M693.33,8.07a3.32,3.32,0,0,1,.9-2.45,3.41,3.41,0,0,1,2.52-.9,3.32,3.32,0,0,1,2.44.9,3.28,3.28,0,0,1,.91,2.45,3.2,3.2,0,0,1-.94,2.47,3.36,3.36,0,0,1-2.41.88,3.45,3.45,0,0,1-2.48-.88A3.2,3.2,0,0,1,693.33,8.07ZM699.82,41h-6.23V14.89h6.23Z"/><path class="cls-1" d="M718,41l-1.24-3.56h-.14a8.89,8.89,0,0,1-2.86,3.16,7.28,7.28,0,0,1-3.73.87,5.39,5.39,0,0,1-4.53-2.16,9.64,9.64,0,0,1-1.66-6q0-4.13,2.27-6.13c1.5-1.33,3.76-2.07,6.76-2.21l3.47-.14V23q0-3.64-3.17-3.65a10.82,10.82,0,0,0-5.39,1.83l-2.15-4.32a15.51,15.51,0,0,1,8.46-2.46,8.09,8.09,0,0,1,6.31,2.38,9.63,9.63,0,0,1,2.17,6.74V41Zm-5.41-4.41a3.14,3.14,0,0,0,2.73-1.53,7.29,7.29,0,0,0,1-4.09v-2.2l-1.92.09a4.33,4.33,0,0,0-3.13,1.22,4.72,4.72,0,0,0-1,3.28C710.25,35.52,711,36.59,712.55,36.59Z"/><path class="cls-1" d="M740.58,41V25.44a10.58,10.58,0,0,0-.68-4.29,2.28,2.28,0,0,0-2.2-1.45,3.09,3.09,0,0,0-3,2c-.62,1.34-.94,3.59-.94,6.76V41h-6.23V14.89h4.95l.75,3.35h.39a6.68,6.68,0,0,1,2.42-2.82,6.6,6.6,0,0,1,3.68-1,6.15,6.15,0,0,1,5.33,2.44c1.18,1.62,1.77,4,1.77,7.12V41Z"/><path class="cls-1" d="M761,36.2a7.14,7.14,0,0,0,2.83-.66v4.87a8,8,0,0,1-4.57,1.06,6.09,6.09,0,0,1-5-2q-1.65-2-1.65-6.08V19.84H750V17.05l3.26-2.25,1.6-5.53h4v5.62h4.73v4.95h-4.73V33.57C758.86,35.32,759.56,36.2,761,36.2Z"/><path class="cls-1" d="M781.48,33.36a7.86,7.86,0,0,1-2.24,6q-2.24,2.15-6.6,2.15a12.3,12.3,0,0,1-6.4-1.52V34.53a12.06,12.06,0,0,0,3,1.48,9.6,9.6,0,0,0,3,.58,3.08,3.08,0,0,0,2.21-.71,2.48,2.48,0,0,0,.77-1.89,3,3,0,0,0-.8-2.08,13.4,13.4,0,0,0-2.93-2.18,12.13,12.13,0,0,1-4.07-3.6,8.15,8.15,0,0,1-1.23-4.51,6.57,6.57,0,0,1,2.29-5.28,9.39,9.39,0,0,1,6.27-1.94,12.58,12.58,0,0,1,6.54,1.83l-2,4.47a9.6,9.6,0,0,0-4.41-1.36,2.32,2.32,0,0,0-1.79.64,2.14,2.14,0,0,0-.6,1.54,2.74,2.74,0,0,0,.74,1.88,12.75,12.75,0,0,0,2.75,2A16.9,16.9,0,0,1,779.41,28a7.29,7.29,0,0,1,1.53,2.34A8,8,0,0,1,781.48,33.36Z"/><path class="cls-1" d="M797.23,37.79a3.93,3.93,0,0,1,1-2.84,3.84,3.84,0,0,1,2.89-1,3.93,3.93,0,0,1,2.91,1,3.87,3.87,0,0,1,1,2.85,3.83,3.83,0,0,1-1,2.84,3.89,3.89,0,0,1-2.87,1,3.83,3.83,0,0,1-2.88-1A3.87,3.87,0,0,1,797.23,37.79ZM803.7,30h-5.14L797.41,6.73h7.48Z"/></svg>