<?xml version="1.0" encoding="utf-8"?>
<!-- Generator: Adobe Illustrator 22.1.0, SVG Export Plug-In . SVG Version: 6.00 Build 0)  -->
<svg version="1.1" id="Calque_1" xmlns="http://www.w3.org/2000/svg" xmlns:xlink="http://www.w3.org/1999/xlink" x="0px" y="0px"
	 viewBox="0 0 222 57.7" style="enable-background:new 0 0 222 57.7;" xml:space="preserve">
<style type="text/css">
	.st0{fill:#423229;}
</style>
<g>
	<path class="st0" d="M3,6.4h8.8c3.6,0,6.1,0.7,7.8,2.1S22,12,22,15.1c0.1,1.8-0.4,3.5-1.3,5c-0.8,1.3-2.1,2.2-3.5,2.4v0.2
		c1.7,0.3,3.2,1.3,4.2,2.7c0.9,1.6,1.4,3.4,1.3,5.3c0.2,2.7-0.7,5.3-2.5,7.3c-1.8,1.8-4.3,2.8-6.8,2.6H3V6.4z M9,20.2h3
		c1.1,0.1,2.1-0.3,2.8-1.1c0.6-1,0.9-2.1,0.8-3.2c0.1-1.1-0.2-2.2-0.9-3.1c-0.8-0.7-1.9-1-2.9-0.9H9V20.2z M9,25.5v9.6h3.2
		c1.1,0.1,2.3-0.4,3-1.2c0.7-1.1,1.1-2.4,1-3.8c0-3.1-1.3-4.6-4-4.6L9,25.5z"/>
	<path class="st0" d="M46.3,27.5c0,4.3-0.9,7.6-2.7,10c-1.7,2.4-4.5,3.7-7.5,3.6c-1.9,0-3.8-0.5-5.3-1.6c-1.6-1.2-2.8-2.8-3.5-4.7
		c-0.9-2.3-1.3-4.7-1.2-7.2c0-4.2,0.9-7.5,2.7-9.9c1.7-2.4,4.5-3.7,7.5-3.6c2.9-0.1,5.6,1.2,7.4,3.6C45.4,20.1,46.3,23.4,46.3,27.5z
		 M32.4,27.5c-0.1,2.1,0.2,4.2,0.9,6.2c0.4,1.2,1.6,2.1,2.9,2.1c2.5,0,3.8-2.8,3.8-8.3c0.1-2.1-0.2-4.2-0.9-6.1
		c-0.5-1.6-2.2-2.4-3.8-1.9c-0.9,0.3-1.6,1-1.9,1.9C32.6,23.4,32.3,25.5,32.4,27.5z"/>
	<path class="st0" d="M54.5,27.3L48,14.5h6.5l3.5,8l3.2-8h6.4L61,27.3l6.8,13.3h-6.5l-3.7-8.3l-3.5,8.3h-6.5L54.5,27.3z"/>
	<path class="st0" d="M93.8,14c0.8,0,1.5,0.1,2.3,0.4l-0.7,6c-0.6-0.2-1.1-0.3-1.7-0.2c-1.4-0.1-2.7,0.6-3.5,1.8
		c-0.9,1.6-1.3,3.4-1.2,5.2v13.4h-6.2V14.5h5.1l0.7,4.1h0.2c0.5-1.3,1.3-2.6,2.3-3.6C91.8,14.4,92.8,14,93.8,14z"/>
	<path class="st0" d="M108.5,41.1c-3,0.1-5.8-1.2-7.7-3.5c-1.9-2.3-2.8-5.6-2.8-9.9c0-4.3,0.9-7.6,2.6-10.1c1.6-2.4,4.3-3.7,7.1-3.6
		c2.6-0.1,5.1,1,6.7,3.1c1.6,2.1,2.5,5,2.5,8.7v3.3h-12.5c-0.1,1.8,0.4,3.7,1.4,5.2c0.9,1.1,2.3,1.8,3.8,1.7
		c2.2-0.1,4.4-0.7,6.2-1.9v5.1C113.5,40.5,111,41.2,108.5,41.1z M107.6,18.8c-0.9,0-1.8,0.6-2.2,1.4c-0.7,1.4-1,2.9-1,4.4h6.3
		c0.1-1.5-0.2-3-0.9-4.3C109.4,19.4,108.5,18.8,107.6,18.8z"/>
	<path class="st0" d="M133.9,40.6V25.1c0.1-1.5-0.2-2.9-0.7-4.3c-0.4-0.9-1.3-1.5-2.2-1.5c-1.3,0-2.5,0.8-2.9,2
		c-0.6,1.3-0.9,3.6-0.9,6.8v12.5h-6.2V14.5h5l0.8,3.3h0.4c1.1-2.4,3.5-3.9,6.1-3.8c2.1-0.1,4.1,0.8,5.3,2.4c1.2,1.6,1.8,4,1.8,7.1
		v17H133.9z"/>
	<path class="st0" d="M154.3,35.8c1,0,1.9-0.2,2.8-0.7v4.9c-1.4,0.8-3,1.2-4.6,1.1c-1.9,0.1-3.7-0.6-5-2c-1.1-1.3-1.6-3.4-1.6-6.1
		V19.5h-2.5v-2.8l3.3-2.3l1.6-5.5h4v5.6h4.7v4.9h-4.8v13.7C152.2,35,152.9,35.8,154.3,35.8z"/>
	<path class="st0" d="M171.9,14c0.8,0,1.5,0.1,2.3,0.4l-0.7,6c-0.6-0.2-1.1-0.3-1.7-0.2c-1.4-0.1-2.7,0.6-3.5,1.8
		c-0.9,1.6-1.4,3.4-1.3,5.2v13.4h-6.2V14.5h5.1l0.7,4.1h0.2c0.5-1.3,1.3-2.5,2.3-3.5C169.9,14.4,170.9,14,171.9,14z"/>
	<path class="st0" d="M186.6,41.1c-3,0.1-5.8-1.2-7.7-3.5c-1.9-2.3-2.8-5.6-2.8-9.9s0.9-7.6,2.6-10.1c1.6-2.4,4.3-3.7,7.1-3.6
		c2.6-0.1,5.1,1,6.7,3.1c1.6,2.1,2.5,5,2.5,8.7v3.3h-12.5c-0.1,1.8,0.4,3.7,1.4,5.2c0.9,1.1,2.3,1.8,3.8,1.7
		c2.2-0.1,4.4-0.7,6.2-1.9v5.1C191.6,40.5,189.1,41.2,186.6,41.1z M182.5,11.6v-0.6c0.8-1.1,1.6-2.3,2.2-3.5
		c0.8-1.5,1.4-2.7,1.8-3.5h7.5v0.5c-0.8,1.2-1.8,2.3-2.8,3.3c-1.4,1.4-2.8,2.7-4.3,4L182.5,11.6z M185.7,18.8
		c-0.9,0-1.8,0.6-2.2,1.4c-0.7,1.4-1,2.9-1,4.4h6.3c0.1-1.5-0.2-3-0.9-4.3C187.6,19.4,186.7,18.9,185.7,18.8z"/>
	<path class="st0" d="M208.7,41.1c-3,0.1-5.8-1.2-7.7-3.5c-1.9-2.3-2.8-5.6-2.8-9.9s0.8-7.6,2.5-10.1c2.9-3.9,8.4-4.8,12.3-1.9
		c0.6,0.4,1.1,0.9,1.5,1.4c1.6,2.1,2.5,5,2.5,8.7v3.3h-12.5c-0.1,1.8,0.4,3.7,1.4,5.2c0.9,1.1,2.3,1.8,3.8,1.7
		c2.2-0.1,4.4-0.7,6.2-1.9v5.1C213.7,40.5,211.2,41.2,208.7,41.1z M207.8,18.8c-0.9,0-1.8,0.6-2.2,1.4c-0.7,1.4-1,2.9-1,4.4h6.3
		c0.1-1.5-0.2-3-0.9-4.3C209.6,19.4,208.7,18.8,207.8,18.8z"/>
</g>
</svg>
