<?xml version="1.0" encoding="utf-8"?>
<!-- Generator: Adobe Illustrator 22.1.0, SVG Export Plug-In . SVG Version: 6.00 Build 0)  -->
<svg version="1.1" id="Calque_1" xmlns="http://www.w3.org/2000/svg" xmlns:xlink="http://www.w3.org/1999/xlink" x="0px" y="0px"
	 viewBox="0 0 390.4 199" style="enable-background:new 0 0 390.4 199;" xml:space="preserve">
<style type="text/css">
	.st0{fill:#FFFFFF;}
</style>
<title>world</title>
<g>
	<path class="st0" d="M91.8,9.7C42.7,9.7,3,49.5,3.1,98.6S43,187.4,92,187.3s88.8-39.9,88.7-88.9c-0.1-43.8-32-80.9-75.2-87.7
		C100.9,10,96.4,9.7,91.8,9.7z M146.8,159c-33.3,30.3-84.8,27.9-115.2-5.3s-28-84.9,5.3-115.3c2.6-2.4,5.3-4.6,8.2-6.6
		c22.4-15.6,51-19,76.4-9l0,0c30,11.8,50.3,40.2,51.7,72.4l0,0C174.2,119.4,164.5,142.7,146.8,159L146.8,159z"/>
	<path class="st0" d="M53.7,30.8c-0.1,3.7-0.9,7.3-2.2,10.7c5.2,3.2,14,8.2,14,8.2s0,7-1.9,11.1c2,2.3,4.5,4.7,4.5,4.7
		S97.8,47.1,85.7,21C74.4,21.9,63.5,25.2,53.7,30.8C53.5,34.2,63.3,25.3,53.7,30.8z"/>
	<path class="st0" d="M147.3,83.7c0,0,9.5,12.1,11,16.5c3.9,0.3,7.8-0.3,11.4-1.8c0-3.6-0.3-7.2-0.8-10.8c-0.5,0.2-4.7,2-5.6,1.8
		c-1.4-2.7-4.5-8.5-3.7-10.4c2.8,0.6,5.5,1.4,8.1,2.4c-5.9-25.4-24-46.2-48.3-55.5c-3.4,5.7-6.8,14.7-7,19.4c1.7,0.3,4.2,1,4.2,1
		s5.3-7.4,7.1-8.6c4,1.7,5.1,3.2,5.1,3.2s-7.6,10.4-13.6,14.2c-2.9,0.7-5.9,1.1-8.9,1.4c0,0,5.3,4.3,5.9,6.7
		c-2.9,1.1-5.8,1.8-8.8,2.3l2.3,8.7c0,0,9.9-0.1,11.8-1.8c-0.4-2.5-1.4-4.8-2.8-6.9l7.4-3.2c0,0,6.3,6.6,6.7,7.4
		c5,1.4,14.4,2.1,14.4,2.1v4.1c0,0-7.2,5.8-9.5,6.6c-3.9-1.2-8.5-4-8.5-5c-3.3-0.3-17.3,0.6-18.8,1.7c-1.9,3.3-9.5,18.8-9.5,21.4
		c4.1,6,13,11.4,13,11.4l17.1-2.9c0,0,3.6,21-0.3,33.8c3.4,8.1,6.7,15.4,9.3,19.8c5.7-4,10.9-8.7,15.4-14.1l0.3-1.1l1-0.5
		c1.2-1.6,2.4-3.1,3.5-4.8c2.9-7.5,9.3-24.8,10.5-37.4c-3.9-0.6-7.8-1-11.7-1.1c0,0-11.7-11.8-10.9-18.5
		C145.4,84.8,146.4,84.3,147.3,83.7z"/>
	<path class="st0" d="M75.6,116.2c-1.5-0.3-11.4-6.7-19.5-11.1c-2.3,1-9.2,4.8-9.2,4.8l-7.5-2.9c0,0,1.6-3.1,3.6-6.4
		c-3.1,0-7.7-0.5-9-3.9c-0.9-2.5,0.4-5.3,1.8-7.3s3.8-4,6.6-3.9s4.6,2.5,5.2,5.1l2-2.8c-0.7-1.5-1.5-3-2.5-4.4
		c2.5-7.8,5.9-15.2,10.3-22.1c0,0-6.6-4.4-11.8-7.7c-0.3,1.1-4.9,9.5-4.9,9.5c-3.4-1.9-6.5-4.3-9.2-7c1.9-5.8,8.7-14,8.7-14l-1-0.9
		c-15.4,14-24.5,33.5-25.4,54.3c9,13.4,28.8,17.2,32.1,17.3c-0.5,3.1-4,9.1-9.1,17.2c0.4,4.4,8.5,12.8,18.1,20.7
		c-0.1,3.8-2.2,9.9-4,14.5c5.7,3.5,11.8,6.2,18.1,8.2C95.1,137.3,86.3,118,86.3,118C82.9,117.6,79.2,117,75.6,116.2
		C74.1,116,81,117.5,75.6,116.2z"/>
</g>
<g>
	<path class="st0" d="M208.6,113.9h-7.9V71.1h19.2V78h-11.3v11.9h10.5v6.9h-10.5V113.9z"/>
	<path class="st0" d="M238.7,80.7c1,0,1.9,0.1,2.8,0.4l-0.9,7.6c-0.5-0.2-1.3-0.3-2.1-0.3c-1.9,0-3.3,0.7-4.4,2.2s-1.5,3.7-1.5,6.5
		v16.8h-7.8V81.3h6.4l0.9,5.1h0.3c0.9-2.1,1.8-3.5,2.8-4.4S237.4,80.7,238.7,80.7z"/>
	<path class="st0" d="M261,113.9l-1.6-4.5h-0.2c-1.2,1.9-2.3,3.2-3.6,4s-2.8,1.1-4.7,1.1c-2.4,0-4.3-0.9-5.7-2.7s-2.1-4.3-2.1-7.5
		c0-3.4,0.9-6,2.8-7.7s4.7-2.6,8.5-2.8l4.3-0.2v-2.3c0-3-1.3-4.6-4-4.6c-2,0-4.2,0.8-6.7,2.3l-2.7-5.4c3.2-2.1,6.8-3.1,10.6-3.1
		c3.5,0,6.1,1,7.9,3c1.8,2,2.7,4.8,2.7,8.4v21.9H261z M254.2,108.4c1.4,0,2.6-0.6,3.4-1.9s1.3-3,1.3-5.1v-2.8l-2.4,0.1
		c-1.8,0.1-3.1,0.6-3.9,1.5c-0.8,0.9-1.2,2.3-1.2,4.1C251.4,107.1,252.3,108.4,254.2,108.4z"/>
	<path class="st0" d="M289.3,113.9V94.5c0-2.4-0.3-4.1-0.8-5.4c-0.6-1.2-1.5-1.8-2.8-1.8c-1.7,0-2.9,0.8-3.7,2.5s-1.2,4.5-1.2,8.5
		v15.7H273V81.3h6.2l0.9,4.2h0.5c0.7-1.5,1.7-2.7,3-3.5s2.8-1.3,4.6-1.3c3,0,5.2,1,6.7,3c1.5,2,2.2,5,2.2,8.9v21.3H289.3z"/>
	<path class="st0" d="M314.2,114.5c-3.9,0-6.8-1.4-8.9-4.2s-3-7-3-12.5c0-5.7,1-10,2.9-12.9c1.9-2.8,4.9-4.2,8.9-4.2
		c1.2,0,2.5,0.2,3.8,0.5s2.5,0.9,3.6,1.5l-2.2,6.1c-1.6-1-3.1-1.4-4.3-1.4c-1.7,0-2.9,0.9-3.6,2.6s-1.1,4.3-1.1,7.8
		c0,3.4,0.4,5.9,1.1,7.6s1.9,2.5,3.5,2.5c2,0,4-0.7,6.1-2.1v6.9C318.9,113.9,316.7,114.5,314.2,114.5z M318.9,121.5
		c0,2.1-0.7,3.7-2.1,5s-3.5,1.8-6.4,1.8c-1.4,0-2.7-0.2-3.8-0.6v-4.5c1.2,0.3,2.4,0.5,3.5,0.5c1.7,0,2.6-0.6,2.6-1.9
		c0-1.6-1.5-2.7-4.6-3.2l2.3-4.6h5.1l-1.1,2.2c1.3,0.3,2.4,0.9,3.3,1.8S318.9,120.1,318.9,121.5z"/>
	<path class="st0" d="M341.7,113.9l-1.6-4.5h-0.2c-1.2,1.9-2.3,3.2-3.6,4s-2.8,1.1-4.7,1.1c-2.4,0-4.3-0.9-5.7-2.7s-2.1-4.3-2.1-7.5
		c0-3.4,0.9-6,2.8-7.7s4.7-2.6,8.5-2.8l4.3-0.2v-2.3c0-3-1.3-4.6-4-4.6c-2,0-4.2,0.8-6.7,2.3l-2.7-5.4c3.2-2.1,6.8-3.1,10.6-3.1
		c3.5,0,6.1,1,7.9,3c1.8,2,2.7,4.8,2.7,8.4v21.9H341.7z M334.9,108.4c1.4,0,2.6-0.6,3.4-1.9s1.3-3,1.3-5.1v-2.8l-2.4,0.1
		c-1.8,0.1-3.1,0.6-3.9,1.5c-0.8,0.9-1.2,2.3-1.2,4.1C332,107.1,333,108.4,334.9,108.4z"/>
	<path class="st0" d="M353.4,72.8c0-1.3,0.4-2.3,1.1-3.1c0.8-0.8,1.8-1.1,3.1-1.1c1.3,0,2.3,0.4,3,1.1c0.8,0.8,1.1,1.8,1.1,3.1
		c0,1.3-0.4,2.4-1.2,3.1s-1.8,1.1-3,1.1c-1.3,0-2.3-0.4-3.1-1.1S353.4,74.1,353.4,72.8z M361.5,113.9h-7.8V81.3h7.8V113.9z"/>
	<path class="st0" d="M385.7,104.4c0,3.2-0.9,5.7-2.8,7.5s-4.6,2.7-8.2,2.7c-3.2,0-5.9-0.6-8-1.9v-6.8c1.1,0.7,2.3,1.4,3.8,1.8
		s2.7,0.7,3.8,0.7c1.2,0,2.1-0.3,2.8-0.9s1-1.4,1-2.4c0-1-0.3-1.9-1-2.6c-0.7-0.7-1.9-1.7-3.7-2.7c-2.4-1.4-4.1-2.9-5.1-4.5
		c-1-1.6-1.5-3.5-1.5-5.6c0-2.8,1-5,2.9-6.6c1.9-1.6,4.5-2.4,7.8-2.4c2.9,0,5.6,0.8,8.2,2.3l-2.5,5.6c-2.1-1.1-3.9-1.7-5.5-1.7
		c-1,0-1.7,0.3-2.2,0.8s-0.7,1.2-0.7,1.9c0,0.9,0.3,1.7,0.9,2.3c0.6,0.7,1.8,1.5,3.4,2.5c2,1.2,3.5,2.3,4.3,3.1
		c0.8,0.9,1.5,1.8,1.9,2.9C385.5,101.6,385.7,102.9,385.7,104.4z"/>
</g>
</svg>
