<svg id="Calque_1" data-name="Calque 1" xmlns="http://www.w3.org/2000/svg" viewBox="0 0 390.4 199"><defs><style>.cls-1{fill:#fff;}</style></defs><title>worldfr</title><path class="cls-1" d="M91.8,9.7a88.47,88.47,0,1,0,13.7,1A90.22,90.22,0,0,0,91.8,9.7Zm55,149.3A81.58,81.58,0,0,1,36.9,38.4a74,74,0,0,1,8.2-6.6,81.37,81.37,0,0,1,76.4-9h0a81.69,81.69,0,0,1,51.7,72.4h0A82.09,82.09,0,0,1,146.8,159Z"/><path class="cls-1" d="M53.7,30.8a32.42,32.42,0,0,1-2.2,10.7c5.2,3.2,14,8.2,14,8.2s0,7-1.9,11.1c2,2.3,4.5,4.7,4.5,4.7S97.8,47.1,85.7,21a76.61,76.61,0,0,0-32,9.8C53.5,34.2,63.3,25.3,53.7,30.8Z"/><path class="cls-1" d="M147.3,83.7s9.5,12.1,11,16.5a24.67,24.67,0,0,0,11.4-1.8,78.49,78.49,0,0,0-.8-10.8c-.5.2-4.7,2-5.6,1.8-1.4-2.7-4.5-8.5-3.7-10.4a54.11,54.11,0,0,1,8.1,2.4,78.39,78.39,0,0,0-48.3-55.5c-3.4,5.7-6.8,14.7-7,19.4,1.7.3,4.2,1,4.2,1s5.3-7.4,7.1-8.6c4,1.7,5.1,3.2,5.1,3.2s-7.6,10.4-13.6,14.2a66,66,0,0,1-8.9,1.4s5.3,4.3,5.9,6.7a45.63,45.63,0,0,1-8.8,2.3l2.3,8.7s9.9-.1,11.8-1.8a17.36,17.36,0,0,0-2.8-6.9l7.4-3.2s6.3,6.6,6.7,7.4c5,1.4,14.4,2.1,14.4,2.1v4.1s-7.2,5.8-9.5,6.6c-3.9-1.2-8.5-4-8.5-5-3.3-.3-17.3.6-18.8,1.7-1.9,3.3-9.5,18.8-9.5,21.4,4.1,6,13,11.4,13,11.4l17.1-2.9s3.6,21-.3,33.8c3.4,8.1,6.7,15.4,9.3,19.8a79.2,79.2,0,0,0,15.4-14.1l.3-1.1,1-.5c1.2-1.6,2.4-3.1,3.5-4.8,2.9-7.5,9.3-24.8,10.5-37.4a92.57,92.57,0,0,0-11.7-1.1s-11.7-11.8-10.9-18.5A11.89,11.89,0,0,0,147.3,83.7Z"/><path class="cls-1" d="M75.6,116.2c-1.5-.3-11.4-6.7-19.5-11.1-2.3,1-9.2,4.8-9.2,4.8L39.4,107s1.6-3.1,3.6-6.4c-3.1,0-7.7-.5-9-3.9-.9-2.5.4-5.3,1.8-7.3s3.8-4,6.6-3.9S47,88,47.6,90.6l2-2.8a27.57,27.57,0,0,0-2.5-4.4A94.65,94.65,0,0,1,57.4,61.3s-6.6-4.4-11.8-7.7c-.3,1.1-4.9,9.5-4.9,9.5a42.2,42.2,0,0,1-9.2-7c1.9-5.8,8.7-14,8.7-14l-1-.9A77.8,77.8,0,0,0,13.8,95.5c9,13.4,28.8,17.2,32.1,17.3-.5,3.1-4,9.1-9.1,17.2.4,4.4,8.5,12.8,18.1,20.7-.1,3.8-2.2,9.9-4,14.5A81.85,81.85,0,0,0,69,173.4C95.1,137.3,86.3,118,86.3,118c-3.4-.4-7.1-1-10.7-1.8C74.1,116,81,117.5,75.6,116.2Z"/><path class="cls-1" d="M208.6,113.9h-7.9V71.1h19.2V78H208.6V89.9h10.5v6.9H208.6Z"/><path class="cls-1" d="M238.7,80.7a8.63,8.63,0,0,1,2.8.4l-.9,7.6a6.23,6.23,0,0,0-2.1-.3,5.07,5.07,0,0,0-4.4,2.2c-1.1,1.5-1.5,3.7-1.5,6.5v16.8h-7.8V81.3h6.4l.9,5.1h.3a12.35,12.35,0,0,1,2.8-4.4A5.08,5.08,0,0,1,238.7,80.7Z"/><path class="cls-1" d="M261,113.9l-1.6-4.5h-.2a11.94,11.94,0,0,1-3.6,4,8.62,8.62,0,0,1-4.7,1.1,6.84,6.84,0,0,1-5.7-2.7q-2.1-2.7-2.1-7.5c0-3.4.9-6,2.8-7.7s4.7-2.6,8.5-2.8l4.3-.2V91.3c0-3-1.3-4.6-4-4.6A13.42,13.42,0,0,0,248,89l-2.7-5.4a19,19,0,0,1,10.6-3.1c3.5,0,6.1,1,7.9,3s2.7,4.8,2.7,8.4v21.9H261Zm-6.8-5.5a3.81,3.81,0,0,0,3.4-1.9,9.61,9.61,0,0,0,1.3-5.1V98.6l-2.4.1a5.41,5.41,0,0,0-3.9,1.5,6.08,6.08,0,0,0-1.2,4.1C251.4,107.1,252.3,108.4,254.2,108.4Z"/><path class="cls-1" d="M289.3,113.9V94.5a15,15,0,0,0-.8-5.4,2.92,2.92,0,0,0-2.8-1.8,3.83,3.83,0,0,0-3.7,2.5c-.8,1.7-1.2,4.5-1.2,8.5V114H273V81.3h6.2l.9,4.2h.5a7.94,7.94,0,0,1,3-3.5,8.56,8.56,0,0,1,4.6-1.3,7.8,7.8,0,0,1,6.7,3c1.5,2,2.2,5,2.2,8.9v21.3Z"/><path class="cls-1" d="M314.2,114.5a10.39,10.39,0,0,1-8.9-4.2c-2.1-2.8-3-7-3-12.5,0-5.7,1-10,2.9-12.9s4.9-4.2,8.9-4.2a17.26,17.26,0,0,1,3.8.5,14.39,14.39,0,0,1,3.6,1.5l-2.2,6.1a8.29,8.29,0,0,0-4.3-1.4,3.71,3.71,0,0,0-3.6,2.6,21.52,21.52,0,0,0-1.1,7.8,20.68,20.68,0,0,0,1.1,7.6,3.59,3.59,0,0,0,3.5,2.5,10.94,10.94,0,0,0,6.1-2.1v6.9A13.3,13.3,0,0,1,314.2,114.5Zm4.7,7a6.42,6.42,0,0,1-2.1,5c-1.4,1.3-3.5,1.8-6.4,1.8a11.22,11.22,0,0,1-3.8-.6v-4.5a14.77,14.77,0,0,0,3.5.5c1.7,0,2.6-.6,2.6-1.9,0-1.6-1.5-2.7-4.6-3.2l2.3-4.6h5.1l-1.1,2.2a6.69,6.69,0,0,1,3.3,1.8A4.69,4.69,0,0,1,318.9,121.5Z"/><path class="cls-1" d="M341.7,113.9l-1.6-4.5h-.2a11.94,11.94,0,0,1-3.6,4,8.62,8.62,0,0,1-4.7,1.1,6.84,6.84,0,0,1-5.7-2.7q-2.1-2.7-2.1-7.5c0-3.4.9-6,2.8-7.7s4.7-2.6,8.5-2.8l4.3-.2V91.3c0-3-1.3-4.6-4-4.6a13.42,13.42,0,0,0-6.7,2.3L326,83.6a19,19,0,0,1,10.6-3.1c3.5,0,6.1,1,7.9,3s2.7,4.8,2.7,8.4v21.9h-5.5Zm-6.8-5.5a3.81,3.81,0,0,0,3.4-1.9,9.61,9.61,0,0,0,1.3-5.1V98.6l-2.4.1a5.41,5.41,0,0,0-3.9,1.5,6.08,6.08,0,0,0-1.2,4.1C332,107.1,333,108.4,334.9,108.4Z"/><path class="cls-1" d="M353.4,72.8a4.5,4.5,0,0,1,1.1-3.1,4.16,4.16,0,0,1,7.2,3.1,4,4,0,0,1-1.2,3.1,4.43,4.43,0,0,1-3,1.1,4.5,4.5,0,0,1-3.1-1.1A3.9,3.9,0,0,1,353.4,72.8Zm8.1,41.1h-7.8V81.3h7.8Z"/><path class="cls-1" d="M385.7,104.4c0,3.2-.9,5.7-2.8,7.5s-4.6,2.7-8.2,2.7a15.05,15.05,0,0,1-8-1.9v-6.8a13.38,13.38,0,0,0,3.8,1.8,15.44,15.44,0,0,0,3.8.7,4.1,4.1,0,0,0,2.8-.9,3,3,0,0,0,1-2.4,3.54,3.54,0,0,0-1-2.6,16.78,16.78,0,0,0-3.7-2.7,14.39,14.39,0,0,1-5.1-4.5,10.43,10.43,0,0,1-1.5-5.6,8.2,8.2,0,0,1,2.9-6.6,11.73,11.73,0,0,1,7.8-2.4,16.14,16.14,0,0,1,8.2,2.3l-2.5,5.6a12.27,12.27,0,0,0-5.5-1.7,3,3,0,0,0-2.2.8,2.64,2.64,0,0,0-.7,1.9,3.17,3.17,0,0,0,.9,2.3,16.48,16.48,0,0,0,3.4,2.5,24.18,24.18,0,0,1,4.3,3.1,9.1,9.1,0,0,1,1.9,2.9A23.52,23.52,0,0,1,385.7,104.4Z"/></svg>