<svg id="Calque_1" data-name="Calque 1" xmlns="http://www.w3.org/2000/svg" viewBox="0 0 273 99" ><defs><style>.cls-1{fill:#fff;}</style></defs><title>world</title><path class="cls-1" d="M47.4,10.6a38.17,38.17,0,1,0,5.8.5A27.82,27.82,0,0,0,47.4,10.6ZM70.8,74.1A34.72,34.72,0,0,1,24,22.8,30.67,30.67,0,0,1,27.5,20,34.57,34.57,0,0,1,60,16.2h0A34.68,34.68,0,0,1,82,47h0A34.27,34.27,0,0,1,70.8,74.1Z"/><path class="cls-1" d="M31.2,19.6a14.46,14.46,0,0,1-.9,4.6c2.2,1.4,6,3.5,6,3.5a13.94,13.94,0,0,1-.8,4.7c.9,1,1.9,2,1.9,2S50,26.6,44.9,15.5a31.22,31.22,0,0,0-13.7,4.1C31.1,21,35.3,17.2,31.2,19.6Z"/><path class="cls-1" d="M71,42.1s4,5.2,4.7,7a10.35,10.35,0,0,0,4.9-.8,35.53,35.53,0,0,0-.3-4.6,8.47,8.47,0,0,1-2.4.8c-.6-1.1-1.9-3.6-1.6-4.4a33.74,33.74,0,0,1,3.4,1A33.15,33.15,0,0,0,59.1,17.5c-1.4,2.4-2.9,6.3-3,8.3.7.1,1.8.4,1.8.4a44.71,44.71,0,0,1,3-3.7,5.23,5.23,0,0,1,2.2,1.4s-3.2,4.4-5.8,6a23.18,23.18,0,0,1-3.8.6s2.3,1.8,2.5,2.9a17,17,0,0,1-3.7,1l1,3.7s4.2,0,5-.8a7.44,7.44,0,0,0-1.2-2.9L60.2,33s2.7,2.8,2.9,3.1a41.15,41.15,0,0,0,6.1.9v1.7a28.87,28.87,0,0,1-4,2.8c-1.7-.5-3.6-1.7-3.6-2.1-1.4-.1-7.4.3-8,.7-.8,1.4-4,8-4,9.1,1.7,2.6,5.5,4.9,5.5,4.9l7.3-1.2s1.5,8.9-.1,14.4a68.15,68.15,0,0,0,4,8.4,37.32,37.32,0,0,0,6.6-6l.1-.5.4-.2c.5-.7,1-1.3,1.5-2,1.2-3.2,4-10.6,4.5-15.9a42.33,42.33,0,0,0-5-.5s-5-5-4.6-7.9A4.49,4.49,0,0,0,71,42.1Z"/><path class="cls-1" d="M40.5,55.9c-.6-.1-4.9-2.9-8.3-4.7-1,.4-3.9,2-3.9,2L25.1,52s.7-1.3,1.5-2.7c-1.3,0-3.3-.2-3.8-1.7a3.47,3.47,0,0,1,.8-3.1,3.51,3.51,0,0,1,2.8-1.7A2.45,2.45,0,0,1,28.6,45l.9-1.2a9.3,9.3,0,0,0-1.1-1.9,40.33,40.33,0,0,1,4.4-9.4s-2.8-1.9-5-3.3c-.1.5-2.1,4-2.1,4a16.23,16.23,0,0,1-3.9-3c.8-2.5,3.7-6,3.7-6L25,24A33.14,33.14,0,0,0,14.2,47.1c3.8,5.7,12.3,7.3,13.7,7.4-.2,1.3-1.7,3.9-3.9,7.3.2,1.9,3.6,5.4,7.7,8.8A20.72,20.72,0,0,1,30,76.8a35.7,35.7,0,0,0,7.7,3.5c11.1-15.4,7.4-23.6,7.4-23.6a36.91,36.91,0,0,1-4.6-.8C39.9,55.8,42.8,56.5,40.5,55.9Z"/><path class="cls-1" d="M124.1,70.2H104.8V27.4h19.3v6.9H112.8V44.5h10.5v6.9H112.8V63.3h11.3Z"/><path class="cls-1" d="M146.1,70.2V50.7a15,15,0,0,0-.8-5.4,2.92,2.92,0,0,0-2.8-1.8,3.83,3.83,0,0,0-3.7,2.5c-.8,1.7-1.2,4.5-1.2,8.5V70.2h-7.8V37.6H136l.9,4.2h.5a7.94,7.94,0,0,1,3-3.5A8.56,8.56,0,0,1,145,37a7.8,7.8,0,0,1,6.7,3c1.5,2,2.2,5,2.2,8.9V70.2Z"/><path class="cls-1" d="M183.8,37.6v4.6l-3.9.9a10.27,10.27,0,0,1,1.1,5.2c0,3.5-.9,6.2-2.8,8.1s-4.5,2.9-7.9,2.9a11,11,0,0,1-2.2-.2,11.41,11.41,0,0,0-1.1,1.1,2,2,0,0,0-.5,1.5c0,1.4,1.2,2.1,3.5,2.1h4.7c2.8,0,4.9.7,6.4,2.2s2.2,3.7,2.2,6.8a10.85,10.85,0,0,1-3.8,8.8c-2.5,2.1-6.2,3.1-11,3.1-3.6,0-6.4-.8-8.3-2.4a8.27,8.27,0,0,1-2.9-6.7,7.6,7.6,0,0,1,1.7-4.8,9.28,9.28,0,0,1,4.6-3,5.46,5.46,0,0,1-2.4-1.8,5,5,0,0,1-.7-4.7,10.93,10.93,0,0,1,.8-1.5,11.25,11.25,0,0,1,2.2-2.1,8.71,8.71,0,0,1-3.2-3.8,13.22,13.22,0,0,1-1.2-5.7c0-3.6.9-6.3,2.8-8.3S166.5,37,170,37a21.51,21.51,0,0,1,2.3.2,7.21,7.21,0,0,1,2,.5l9.5-.1ZM164.6,74.9a3.77,3.77,0,0,0,1.2,3,5.22,5.22,0,0,0,3.5,1c2.4,0,4.1-.4,5.3-1.3a4.33,4.33,0,0,0,1.8-3.7,3,3,0,0,0-1-2.6,6.14,6.14,0,0,0-3.6-.8H168a2.91,2.91,0,0,0-2.5,1.2A5.27,5.27,0,0,0,164.6,74.9ZM167,48.2c0,3.8,1.1,5.8,3.3,5.8s3.2-1.9,3.2-5.8-1.1-6-3.2-6S167,44.2,167,48.2Z"/><path class="cls-1" d="M195.5,70.2h-7.8V24.6h7.8Z"/><path class="cls-1" d="M201.8,29a4.5,4.5,0,0,1,1.1-3.1,4.16,4.16,0,0,1,7.2,3.1,4,4,0,0,1-1.2,3.1,4.43,4.43,0,0,1-3,1.1,4.5,4.5,0,0,1-3.1-1.1A3.78,3.78,0,0,1,201.8,29Zm8.1,41.2h-7.8V37.6h7.8Z"/><path class="cls-1" d="M234.1,60.6c0,3.2-.9,5.7-2.8,7.5s-4.6,2.7-8.2,2.7a15.05,15.05,0,0,1-8-1.9V62.1a13.38,13.38,0,0,0,3.8,1.8,15.44,15.44,0,0,0,3.8.7,4.1,4.1,0,0,0,2.8-.9,3,3,0,0,0,1-2.4,3.54,3.54,0,0,0-1-2.6,16.78,16.78,0,0,0-3.7-2.7,14.39,14.39,0,0,1-5.1-4.5,10.43,10.43,0,0,1-1.5-5.6,8.2,8.2,0,0,1,2.9-6.6,11.73,11.73,0,0,1,7.8-2.4,16.14,16.14,0,0,1,8.2,2.3l-2.5,5.6a12.27,12.27,0,0,0-5.5-1.7,3,3,0,0,0-2.2.8,2.64,2.64,0,0,0-.7,1.9,3.17,3.17,0,0,0,.9,2.3,16.48,16.48,0,0,0,3.4,2.5,24.18,24.18,0,0,1,4.3,3.1,9.1,9.1,0,0,1,1.9,2.9A25.81,25.81,0,0,1,234.1,60.6Z"/><path class="cls-1" d="M255.3,70.2V50.7q0-7.2-3.6-7.2a3.81,3.81,0,0,0-3.8,2.8,24.22,24.22,0,0,0-1.1,8.1V70.1H239V24.6h7.8V34.7c0,1.3-.1,3.6-.4,7h.4q2.4-4.8,7.2-4.8a8.12,8.12,0,0,1,6.8,3c1.6,2,2.3,5,2.3,8.9V70.1l-7.8.1Z"/></svg>
